<?xml version="1.0" standalone="no"?>
<!DOCTYPE svg PUBLIC "-//W3C//DTD SVG 1.1//EN" "http://www.w3.org/Graphics/SVG/1.1/DTD/svg11.dtd" >
<svg xmlns="http://www.w3.org/2000/svg" xmlns:xlink="http://www.w3.org/1999/xlink" version="1.1">
<metadata>
Created by FontForge 20200427 at Sun Oct 28 04:02:21 2018
 By www
</metadata>
<defs>
<font id="ClassyBeautifulRegular" horiz-adv-x="0" >
  <font-face 
    font-family="Classy Beautiful"
    font-weight="400"
    font-stretch="normal"
    units-per-em="1000"
    panose-1="0 0 0 0 0 0 0 0 0 0"
    ascent="800"
    descent="-200"
    x-height="147"
    cap-height="618"
    bbox="-581.167 -761 1313.4 909.119"
    underline-thickness="50"
    underline-position="-150"
    unicode-range="U+000A-F001"
  />
<missing-glyph horiz-adv-x="500" 
 />
    <glyph glyph-name="Cl.liga" unicode="Cl" horiz-adv-x="1239" 
d="M1268.5 115.5q5.5 -5.5 5.5 -13t-6 -12.5q-34 -35 -179.5 -87.5t-238.5 -52.5q-22 0 -39 4q-38 8 -47 64q-9 51 9.5 146t54 193t88 184t104.5 119q39 25 58 6q6 -6 8 -11t0 -24t-14 -47.5t-40 -83.5t-71 -129q-78 -133 -150 -243q-3 -5 -9 -7q-8 -61 -2 -97q5 -31 19 -34
q26 -6 65 -1.5t83 15.5t89 26.5t83 31t66 30t37 24.5q6 5 13.5 5t13 -5.5zM863 347q-26 -69 -42 -135q92 145 158 265.5t70 156.5l-10 -5q-43 -27 -89.5 -102t-86.5 -180zM658 799q-102 -50 -193.5 -124t-157.5 -153.5t-117 -166t-79.5 -162.5t-38.5 -140q-15 -108 24 -144
q16 -15 39 -17.5t53 8.5t56 23t64.5 38t59.5 41.5t60 43.5q72 54 105 74t54 17q8 -1 12.5 -7t3.5 -13.5t-7 -12t-14 -3.5q-17 2 -132 -84q-51 -38 -79.5 -58.5t-74.5 -49t-83 -41.5t-69 -13q-44 0 -73 27q-54 49 -35 176q9 66 39 145.5t82.5 169t121 172.5t163 159.5
t199.5 127.5q253 122 341 51q49 -40 31 -117q-11 -44 -42 -82.5t-69 -46.5q-5 -1 -10 0.5t-8 5t-4 8.5q-2 8 2.5 14t11.5 8q25 5 49.5 35t33.5 66q13 55 -18 80q-9 8 -22 12.5t-37.5 5.5t-56 -5t-80 -23t-105.5 -45z" />
    <glyph glyph-name=".notdef" horiz-adv-x="500" 
 />
    <glyph glyph-name=".notdef" horiz-adv-x="500" 
 />
    <glyph glyph-name=".null" 
 />
    <glyph glyph-name="nonmarkingreturn" horiz-adv-x="333" 
 />
    <glyph glyph-name="LF" unicode="&#xa;" 
 />
    <glyph glyph-name="controlCR" unicode="&#xd;" 
 />
    <glyph glyph-name="space" unicode=" " horiz-adv-x="377" 
 />
    <glyph glyph-name="A" unicode="A" horiz-adv-x="945" 
d="M902 174q3 0 6.5 -1.5t6.5 -3.5t4.5 -5.5t1.5 -7.5q1 -7 -4 -13t-13 -6l-70 -5q-184 -314 -420 -695q-6 -9 -16 -9q-5 0 -10 3q-6 4 -8 11.5t2 14.5q220 354 408 672l-555 -35q-153 -117 -335 -259q-6 -5 -13.5 -4t-12.5 7t-4 14t7 12q157 123 292 226l-357 -23
q14 -9 7 -23q-4 -11 -17 -11q-3 0 -7 1l-65 29q-7 3 -10 10t1 14q5 12 17 11q4 1 6 2l478 30q128 98 235 177t187.5 135.5t143.5 98.5t107 67t75.5 41t52 21t32.5 4.5t21 -4.5q21 -10 21 -38q0 -50 -240 -461zM288 134l524 34q247 421 248 464q0 4 -1 5t-3 1t-7 -0.5
t-11.5 -2t-18 -6t-26 -11t-35.5 -17.5t-45 -25.5t-57 -35t-70 -45.5q-186 -124 -498 -361z" />
    <glyph glyph-name="A" unicode="&#xc5;" horiz-adv-x="945" 
d="M902 174q3 0 6.5 -1.5t6.5 -3.5t4.5 -5.5t1.5 -7.5q1 -7 -4 -13t-13 -6l-70 -5q-184 -314 -420 -695q-6 -9 -16 -9q-5 0 -10 3q-6 4 -8 11.5t2 14.5q220 354 408 672l-555 -35q-153 -117 -335 -259q-6 -5 -13.5 -4t-12.5 7t-4 14t7 12q157 123 292 226l-357 -23
q14 -9 7 -23q-4 -11 -17 -11q-3 0 -7 1l-65 29q-7 3 -10 10t1 14q5 12 17 11q4 1 6 2l478 30q128 98 235 177t187.5 135.5t143.5 98.5t107 67t75.5 41t52 21t32.5 4.5t21 -4.5q21 -10 21 -38q0 -50 -240 -461zM288 134l524 34q247 421 248 464q0 4 -1 5t-3 1t-7 -0.5
t-11.5 -2t-18 -6t-26 -11t-35.5 -17.5t-45 -25.5t-57 -35t-70 -45.5q-186 -124 -498 -361z" />
    <glyph glyph-name="A" unicode="&#xc4;" horiz-adv-x="945" 
d="M902 174q3 0 6.5 -1.5t6.5 -3.5t4.5 -5.5t1.5 -7.5q1 -7 -4 -13t-13 -6l-70 -5q-184 -314 -420 -695q-6 -9 -16 -9q-5 0 -10 3q-6 4 -8 11.5t2 14.5q220 354 408 672l-555 -35q-153 -117 -335 -259q-6 -5 -13.5 -4t-12.5 7t-4 14t7 12q157 123 292 226l-357 -23
q14 -9 7 -23q-4 -11 -17 -11q-3 0 -7 1l-65 29q-7 3 -10 10t1 14q5 12 17 11q4 1 6 2l478 30q128 98 235 177t187.5 135.5t143.5 98.5t107 67t75.5 41t52 21t32.5 4.5t21 -4.5q21 -10 21 -38q0 -50 -240 -461zM288 134l524 34q247 421 248 464q0 4 -1 5t-3 1t-7 -0.5
t-11.5 -2t-18 -6t-26 -11t-35.5 -17.5t-45 -25.5t-57 -35t-70 -45.5q-186 -124 -498 -361z" />
    <glyph glyph-name="A" unicode="&#xc3;" horiz-adv-x="945" 
d="M902 174q3 0 6.5 -1.5t6.5 -3.5t4.5 -5.5t1.5 -7.5q1 -7 -4 -13t-13 -6l-70 -5q-184 -314 -420 -695q-6 -9 -16 -9q-5 0 -10 3q-6 4 -8 11.5t2 14.5q220 354 408 672l-555 -35q-153 -117 -335 -259q-6 -5 -13.5 -4t-12.5 7t-4 14t7 12q157 123 292 226l-357 -23
q14 -9 7 -23q-4 -11 -17 -11q-3 0 -7 1l-65 29q-7 3 -10 10t1 14q5 12 17 11q4 1 6 2l478 30q128 98 235 177t187.5 135.5t143.5 98.5t107 67t75.5 41t52 21t32.5 4.5t21 -4.5q21 -10 21 -38q0 -50 -240 -461zM288 134l524 34q247 421 248 464q0 4 -1 5t-3 1t-7 -0.5
t-11.5 -2t-18 -6t-26 -11t-35.5 -17.5t-45 -25.5t-57 -35t-70 -45.5q-186 -124 -498 -361z" />
    <glyph glyph-name="A" unicode="&#xc2;" horiz-adv-x="945" 
d="M902 174q3 0 6.5 -1.5t6.5 -3.5t4.5 -5.5t1.5 -7.5q1 -7 -4 -13t-13 -6l-70 -5q-184 -314 -420 -695q-6 -9 -16 -9q-5 0 -10 3q-6 4 -8 11.5t2 14.5q220 354 408 672l-555 -35q-153 -117 -335 -259q-6 -5 -13.5 -4t-12.5 7t-4 14t7 12q157 123 292 226l-357 -23
q14 -9 7 -23q-4 -11 -17 -11q-3 0 -7 1l-65 29q-7 3 -10 10t1 14q5 12 17 11q4 1 6 2l478 30q128 98 235 177t187.5 135.5t143.5 98.5t107 67t75.5 41t52 21t32.5 4.5t21 -4.5q21 -10 21 -38q0 -50 -240 -461zM288 134l524 34q247 421 248 464q0 4 -1 5t-3 1t-7 -0.5
t-11.5 -2t-18 -6t-26 -11t-35.5 -17.5t-45 -25.5t-57 -35t-70 -45.5q-186 -124 -498 -361z" />
    <glyph glyph-name="A" unicode="&#xc1;" horiz-adv-x="945" 
d="M902 174q3 0 6.5 -1.5t6.5 -3.5t4.5 -5.5t1.5 -7.5q1 -7 -4 -13t-13 -6l-70 -5q-184 -314 -420 -695q-6 -9 -16 -9q-5 0 -10 3q-6 4 -8 11.5t2 14.5q220 354 408 672l-555 -35q-153 -117 -335 -259q-6 -5 -13.5 -4t-12.5 7t-4 14t7 12q157 123 292 226l-357 -23
q14 -9 7 -23q-4 -11 -17 -11q-3 0 -7 1l-65 29q-7 3 -10 10t1 14q5 12 17 11q4 1 6 2l478 30q128 98 235 177t187.5 135.5t143.5 98.5t107 67t75.5 41t52 21t32.5 4.5t21 -4.5q21 -10 21 -38q0 -50 -240 -461zM288 134l524 34q247 421 248 464q0 4 -1 5t-3 1t-7 -0.5
t-11.5 -2t-18 -6t-26 -11t-35.5 -17.5t-45 -25.5t-57 -35t-70 -45.5q-186 -124 -498 -361z" />
    <glyph glyph-name="A" unicode="&#xc0;" horiz-adv-x="945" 
d="M902 174q3 0 6.5 -1.5t6.5 -3.5t4.5 -5.5t1.5 -7.5q1 -7 -4 -13t-13 -6l-70 -5q-184 -314 -420 -695q-6 -9 -16 -9q-5 0 -10 3q-6 4 -8 11.5t2 14.5q220 354 408 672l-555 -35q-153 -117 -335 -259q-6 -5 -13.5 -4t-12.5 7t-4 14t7 12q157 123 292 226l-357 -23
q14 -9 7 -23q-4 -11 -17 -11q-3 0 -7 1l-65 29q-7 3 -10 10t1 14q5 12 17 11q4 1 6 2l478 30q128 98 235 177t187.5 135.5t143.5 98.5t107 67t75.5 41t52 21t32.5 4.5t21 -4.5q21 -10 21 -38q0 -50 -240 -461zM288 134l524 34q247 421 248 464q0 4 -1 5t-3 1t-7 -0.5
t-11.5 -2t-18 -6t-26 -11t-35.5 -17.5t-45 -25.5t-57 -35t-70 -45.5q-186 -124 -498 -361z" />
    <glyph glyph-name="B" unicode="B" horiz-adv-x="722" 
d="M985 644q58 -41 37 -96q-39 -101 -329 -270q-142 -83 -298 -157q137 15 197 -27q35 -24 42 -67q5 -33 -18.5 -70t-64 -69t-99.5 -66t-115.5 -60t-122 -52.5t-109 -42t-85.5 -29.5q-29 -47 -61 -99q-5 -9 -16 -9q-5 0 -9 3q-7 4 -8.5 11.5t2.5 13.5l39 65q-11 2 -14 13
q-3 7 1 14t11 9q13 4 30 10q132 213 255 396q-5 3 -7 10q-3 9 1 14.5t11 9.5t25 12q164 241 276 373q5 5 12.5 6t13.5 -4t6.5 -13t-4.5 -13q-99 -117 -240 -322q86 39 185 91.5t198.5 112.5t172 119.5t87.5 100.5q11 28 -23 52q-35 25 -100 38t-152 9t-180.5 -24.5
t-194.5 -69t-185 -119.5q-6 -5 -13.5 -4t-12.5 6.5t-4.5 13.5t6.5 13q89 74 196 125t204.5 72.5t189.5 24t160.5 -12.5t106.5 -42zM570 64q-64 45 -274 4q-117 -174 -246 -381q100 35 194 75t178 85.5t132.5 91.5t42.5 82q-4 27 -27 43z" />
    <glyph glyph-name="C" unicode="C" horiz-adv-x="642" 
d="M381 -191q-51 -38 -79.5 -58.5t-74.5 -49t-83 -41.5t-69 -13q-44 0 -73 27q-54 49 -35 176q9 67 39 146t82.5 168.5t121 172.5t163 159.5t199.5 127.5q253 122 341 51q49 -39 31 -117q-11 -44 -42 -82.5t-69 -46.5q-8 -2 -14.5 2.5t-8 12t3 13.5t11.5 8q17 3 34 18t30 37
t19 46q13 55 -18 80q-12 10 -31 14.5t-53 3t-90 -20t-127 -52.5q-102 -50 -193.5 -124t-157.5 -153.5t-117 -166t-79.5 -162.5t-38.5 -140q-15 -108 24 -144q16 -15 39 -17.5t53 8.5t56 23t64.5 38t59.5 41.5t60 43.5q72 54 105 74t54 17q8 -1 12.5 -7t3.5 -13.5t-7 -12
t-14 -3.5q-17 2 -132 -84z" />
    <glyph glyph-name="C" unicode="&#xc7;" horiz-adv-x="642" 
d="M381 -191q-51 -38 -79.5 -58.5t-74.5 -49t-83 -41.5t-69 -13q-44 0 -73 27q-54 49 -35 176q9 67 39 146t82.5 168.5t121 172.5t163 159.5t199.5 127.5q253 122 341 51q49 -39 31 -117q-11 -44 -42 -82.5t-69 -46.5q-8 -2 -14.5 2.5t-8 12t3 13.5t11.5 8q17 3 34 18t30 37
t19 46q13 55 -18 80q-12 10 -31 14.5t-53 3t-90 -20t-127 -52.5q-102 -50 -193.5 -124t-157.5 -153.5t-117 -166t-79.5 -162.5t-38.5 -140q-15 -108 24 -144q16 -15 39 -17.5t53 8.5t56 23t64.5 38t59.5 41.5t60 43.5q72 54 105 74t54 17q8 -1 12.5 -7t3.5 -13.5t-7 -12
t-14 -3.5q-17 2 -132 -84z" />
    <glyph glyph-name="D" unicode="D" horiz-adv-x="918" 
d="M977 580q32 -50 24.5 -114.5t-53.5 -136.5q-36 -54 -127 -129.5t-193 -144t-230.5 -145t-213 -123.5t-165.5 -90l-105 -155q-6 -8 -15 -8q-6 0 -11 3q-6 4 -7.5 11.5t2.5 14.5l66 97q-3 -1 -8 -1q-11 0 -16 10q-4 6 -1.5 13.5t9.5 10.5q15 8 61 33l485 714l-9 -3
q-3 -2 -7 -2q-12 0 -17 11q-3 7 0 14.5t10 10.5l56 24q8 3 17 -2q3 0 7 -2q6 -5 7.5 -12.5t-3.5 -13.5l-476 -701q88 47 173 95.5t199.5 118.5t204.5 131.5t167.5 127t108.5 113.5q83 128 29 209q-11 18 -30 33t-52 31.5t-84 26t-118 13.5t-163.5 -3.5t-211.5 -26.5
q-8 -1 -14 3.5t-7.5 12t3 13.5t12.5 8q137 22 249 28t185.5 -1.5t129 -26.5t85 -41t47.5 -49z" />
    <glyph glyph-name="E" unicode="E" horiz-adv-x="513" 
d="M626 702q27 -27 19.5 -79.5t-49.5 -121.5q-4 -6 -11.5 -8t-14 2t-8 11.5t2.5 13.5q32 54 42 96.5t-7 58.5q-27 28 -111 -11q-92 -43 -189 -139.5t-140 -189.5q-38 -84 -11 -111q12 -15 52 -7.5t92 37.5q51 40 98 70q7 5 14.5 3t11.5 -8.5t2.5 -14t-8.5 -11.5l-14 -10
q-2 -5 -6 -8q-38 -30 -77 -52q-60 -48 -115 -103q-157 -157 -227 -308q-31 -68 -35.5 -118.5t19.5 -73.5q17 -18 50.5 -20t80 12.5t100 43.5t116.5 75.5t125 105.5l-9 -2h-3q-16 0 -19 15q-1 7 3 13.5t12 8.5l60 12h4q13 9 24 -2q5 -5 5 -12.5t-5 -13.5l-18 -18
q-127 -127 -254 -200.5t-214 -73.5q-55 0 -85 30q-32 33 -29.5 93t39.5 140q73 157 234 319q15 15 35 34q-16 -3 -27 -3q-37 0 -59 21q-45 45 5 153q45 98 146.5 199.5t200.5 146.5q107 50 152 5z" />
    <glyph glyph-name="E" unicode="&#xcb;" horiz-adv-x="513" 
d="M626 702q27 -27 19.5 -79.5t-49.5 -121.5q-4 -6 -11.5 -8t-14 2t-8 11.5t2.5 13.5q32 54 42 96.5t-7 58.5q-27 28 -111 -11q-92 -43 -189 -139.5t-140 -189.5q-38 -84 -11 -111q12 -15 52 -7.5t92 37.5q51 40 98 70q7 5 14.5 3t11.5 -8.5t2.5 -14t-8.5 -11.5l-14 -10
q-2 -5 -6 -8q-38 -30 -77 -52q-60 -48 -115 -103q-157 -157 -227 -308q-31 -68 -35.5 -118.5t19.5 -73.5q17 -18 50.5 -20t80 12.5t100 43.5t116.5 75.5t125 105.5l-9 -2h-3q-16 0 -19 15q-1 7 3 13.5t12 8.5l60 12h4q13 9 24 -2q5 -5 5 -12.5t-5 -13.5l-18 -18
q-127 -127 -254 -200.5t-214 -73.5q-55 0 -85 30q-32 33 -29.5 93t39.5 140q73 157 234 319q15 15 35 34q-16 -3 -27 -3q-37 0 -59 21q-45 45 5 153q45 98 146.5 199.5t200.5 146.5q107 50 152 5z" />
    <glyph glyph-name="E" unicode="&#xca;" horiz-adv-x="513" 
d="M626 702q27 -27 19.5 -79.5t-49.5 -121.5q-4 -6 -11.5 -8t-14 2t-8 11.5t2.5 13.5q32 54 42 96.5t-7 58.5q-27 28 -111 -11q-92 -43 -189 -139.5t-140 -189.5q-38 -84 -11 -111q12 -15 52 -7.5t92 37.5q51 40 98 70q7 5 14.5 3t11.5 -8.5t2.5 -14t-8.5 -11.5l-14 -10
q-2 -5 -6 -8q-38 -30 -77 -52q-60 -48 -115 -103q-157 -157 -227 -308q-31 -68 -35.5 -118.5t19.5 -73.5q17 -18 50.5 -20t80 12.5t100 43.5t116.5 75.5t125 105.5l-9 -2h-3q-16 0 -19 15q-1 7 3 13.5t12 8.5l60 12h4q13 9 24 -2q5 -5 5 -12.5t-5 -13.5l-18 -18
q-127 -127 -254 -200.5t-214 -73.5q-55 0 -85 30q-32 33 -29.5 93t39.5 140q73 157 234 319q15 15 35 34q-16 -3 -27 -3q-37 0 -59 21q-45 45 5 153q45 98 146.5 199.5t200.5 146.5q107 50 152 5z" />
    <glyph glyph-name="E" unicode="&#xc9;" horiz-adv-x="513" 
d="M626 702q27 -27 19.5 -79.5t-49.5 -121.5q-4 -6 -11.5 -8t-14 2t-8 11.5t2.5 13.5q32 54 42 96.5t-7 58.5q-27 28 -111 -11q-92 -43 -189 -139.5t-140 -189.5q-38 -84 -11 -111q12 -15 52 -7.5t92 37.5q51 40 98 70q7 5 14.5 3t11.5 -8.5t2.5 -14t-8.5 -11.5l-14 -10
q-2 -5 -6 -8q-38 -30 -77 -52q-60 -48 -115 -103q-157 -157 -227 -308q-31 -68 -35.5 -118.5t19.5 -73.5q17 -18 50.5 -20t80 12.5t100 43.5t116.5 75.5t125 105.5l-9 -2h-3q-16 0 -19 15q-1 7 3 13.5t12 8.5l60 12h4q13 9 24 -2q5 -5 5 -12.5t-5 -13.5l-18 -18
q-127 -127 -254 -200.5t-214 -73.5q-55 0 -85 30q-32 33 -29.5 93t39.5 140q73 157 234 319q15 15 35 34q-16 -3 -27 -3q-37 0 -59 21q-45 45 5 153q45 98 146.5 199.5t200.5 146.5q107 50 152 5z" />
    <glyph glyph-name="E" unicode="&#xc8;" horiz-adv-x="513" 
d="M626 702q27 -27 19.5 -79.5t-49.5 -121.5q-4 -6 -11.5 -8t-14 2t-8 11.5t2.5 13.5q32 54 42 96.5t-7 58.5q-27 28 -111 -11q-92 -43 -189 -139.5t-140 -189.5q-38 -84 -11 -111q12 -15 52 -7.5t92 37.5q51 40 98 70q7 5 14.5 3t11.5 -8.5t2.5 -14t-8.5 -11.5l-14 -10
q-2 -5 -6 -8q-38 -30 -77 -52q-60 -48 -115 -103q-157 -157 -227 -308q-31 -68 -35.5 -118.5t19.5 -73.5q17 -18 50.5 -20t80 12.5t100 43.5t116.5 75.5t125 105.5l-9 -2h-3q-16 0 -19 15q-1 7 3 13.5t12 8.5l60 12h4q13 9 24 -2q5 -5 5 -12.5t-5 -13.5l-18 -18
q-127 -127 -254 -200.5t-214 -73.5q-55 0 -85 30q-32 33 -29.5 93t39.5 140q73 157 234 319q15 15 35 34q-16 -3 -27 -3q-37 0 -59 21q-45 45 5 153q45 98 146.5 199.5t200.5 146.5q107 50 152 5z" />
    <glyph glyph-name="F" unicode="F" horiz-adv-x="682" 
d="M1077 571q0 -4 -2 -8q-1 -13 -13 -16l-95 -26h-5q-14 0 -18 13q-2 8 3 16l-519 -11q-142 -153 -256 -350l415 15q5 0 9.5 -2.5t7 -6.5t3.5 -9q0 -8 -5.5 -13.5t-12.5 -5.5l-438 -15q-59 -106 -106 -218.5t-60.5 -154.5t-19.5 -62q-3 -14 -17 -14q-3 0 -5 1
q-8 2 -11.5 8.5t-1.5 13.5q5 20 18 60.5t58.5 150.5t101.5 213l-59 -2h-1q-8 0 -13 5.5t-5.5 13t5 13t12.5 5.5l82 3q111 196 248 350l-259 -5h-1q-7 0 -12.5 5.5t-5.5 13.5q0 3 1 6.5t3.5 6t6 4t7.5 1.5l294 6q18 19 36 37q5 5 13 5t13 -5.5t5 -13t-5 -12.5q-2 -2 -5 -5.5
t-4 -4.5l594 12q8 0 13.5 -5.5t5.5 -12.5z" />
    <glyph glyph-name="G" unicode="G" horiz-adv-x="1016" 
d="M967 312q8 -1 12 -7.5t2.5 -14t-7.5 -11.5t-14 -3q-20 4 -43 8q-74 -106 -176 -202q-95 -103 -179 -227.5t-133 -220.5t-88.5 -193.5t-51 -133.5t-16.5 -54q-3 -14 -18 -14q-2 0 -4 1q-8 2 -12 8.5t-2 13.5q4 15 12.5 42.5t39 106.5t67.5 158t99.5 186.5t133.5 202.5
q-237 -165 -505 -188q-12 -1 -23 -1q-79 0 -95 53q-15 46 28.5 132t122.5 185t182 208.5t206.5 205t197 170.5t151.5 108q72 41 96 15q8 -9 8.5 -22.5t-9 -40t-38 -73.5t-76.5 -113q-4 -6 -11.5 -7t-14 3.5t-7.5 12t3 13.5q116 160 117 201h-1q-25 0 -115 -65.5
t-203.5 -164.5t-244 -234t-225.5 -257q-41 -54 -70 -99.5t-42 -73.5t-18 -50t-4 -32t4 -17q15 -26 78 -20q347 30 632 299q23 24 42 43q2 3 6 4q64 67 115 138q-61 9 -115 13t-101 0.5t-64 -17.5q-6 -5 -6 -11q0 -8 -5.5 -13.5t-13 -5.5t-13 5.5t-5.5 13.5q0 24 20 40
q62 51 327 9q7 11 9 15q4 6 11.5 8t14 -2t8.5 -11t-2 -14l-2 -3q16 -3 28 -6z" />
    <glyph glyph-name="H" unicode="H" horiz-adv-x="911" 
d="M1025.5 612.5q5.5 -5.5 5.5 -13t-5 -12.5q-139 -139 -275 -369q104 -1 161 -15q8 -2 12 -8.5t2 -14t-8.5 -11.5t-14.5 -2q-59 15 -174 14q-41 -72 -81 -151.5t-71 -147t-60 -137t-48 -118t-35.5 -94t-22 -62t-7.5 -24.5q-4 -13 -18 -13q-3 0 -6 1q-4 2 -7.5 5.5t-4.5 8.5
t0 10q66 201 172 433q70 153 146 288q-138 -4 -335 -28q-59 -105 -106.5 -218t-60.5 -155t-19 -62q-4 -14 -18 -14q-2 0 -5 1q-7 2 -11 8.5t-2 13.5q6 21 18.5 60.5t57.5 148.5t101 212q-179 -23 -306 -46h-3q-16 0 -19 16q-1 7 3.5 13.5t11.5 7.5q153 27 335 49
q140 247 319 426q5 5 12.5 5t13 -5.5t5.5 -13t-5 -12.5q-167 -167 -299 -395q197 23 334 26q144 248 291 395q6 5 13.5 5t13 -5.5z" />
    <glyph glyph-name="I" unicode="I" horiz-adv-x="328" 
d="M571 595q7 -1 11 -8t2.5 -14.5t-8.5 -11t-14 -2.5q-23 6 -47 8q-85 -88 -161 -192.5t-125.5 -192t-92 -180.5t-63 -146.5t-35.5 -101.5q38 1 78 -9q7 -2 11 -8.5t2 -13.5q-1 -5 -4.5 -8.5t-8 -5t-9.5 -0.5q-42 11 -81 8q-3 -14 -17 -14q-3 0 -5 1q-7 1 -11 8
q-31 -8 -48 -20q-5 -3 -10 -3q-10 0 -16 8q-4 6 -3 13.5t8 11.5q27 20 74 28q13 43 31 93t59.5 143t89.5 181.5t123.5 197t159.5 199.5q-40 -7 -60 -22q-5 -3 -11 -3q-10 0 -15 8q-5 6 -3.5 13.5t7.5 11.5q5 4 15.5 10t41 14t64.5 8q1 2 3.5 4.5l4.5 4.5q5 5 13 5t13 -5
q4 -5 5 -12q18 -2 32 -6z" />
    <glyph glyph-name="I" unicode="&#xcf;" horiz-adv-x="328" 
d="M571 595q7 -1 11 -8t2.5 -14.5t-8.5 -11t-14 -2.5q-23 6 -47 8q-85 -88 -161 -192.5t-125.5 -192t-92 -180.5t-63 -146.5t-35.5 -101.5q38 1 78 -9q7 -2 11 -8.5t2 -13.5q-1 -5 -4.5 -8.5t-8 -5t-9.5 -0.5q-42 11 -81 8q-3 -14 -17 -14q-3 0 -5 1q-7 1 -11 8
q-31 -8 -48 -20q-5 -3 -10 -3q-10 0 -16 8q-4 6 -3 13.5t8 11.5q27 20 74 28q13 43 31 93t59.5 143t89.5 181.5t123.5 197t159.5 199.5q-40 -7 -60 -22q-5 -3 -11 -3q-10 0 -15 8q-5 6 -3.5 13.5t7.5 11.5q5 4 15.5 10t41 14t64.5 8q1 2 3.5 4.5l4.5 4.5q5 5 13 5t13 -5
q4 -5 5 -12q18 -2 32 -6z" />
    <glyph glyph-name="I" unicode="&#xce;" horiz-adv-x="328" 
d="M571 595q7 -1 11 -8t2.5 -14.5t-8.5 -11t-14 -2.5q-23 6 -47 8q-85 -88 -161 -192.5t-125.5 -192t-92 -180.5t-63 -146.5t-35.5 -101.5q38 1 78 -9q7 -2 11 -8.5t2 -13.5q-1 -5 -4.5 -8.5t-8 -5t-9.5 -0.5q-42 11 -81 8q-3 -14 -17 -14q-3 0 -5 1q-7 1 -11 8
q-31 -8 -48 -20q-5 -3 -10 -3q-10 0 -16 8q-4 6 -3 13.5t8 11.5q27 20 74 28q13 43 31 93t59.5 143t89.5 181.5t123.5 197t159.5 199.5q-40 -7 -60 -22q-5 -3 -11 -3q-10 0 -15 8q-5 6 -3.5 13.5t7.5 11.5q5 4 15.5 10t41 14t64.5 8q1 2 3.5 4.5l4.5 4.5q5 5 13 5t13 -5
q4 -5 5 -12q18 -2 32 -6z" />
    <glyph glyph-name="I" unicode="&#xcd;" horiz-adv-x="328" 
d="M571 595q7 -1 11 -8t2.5 -14.5t-8.5 -11t-14 -2.5q-23 6 -47 8q-85 -88 -161 -192.5t-125.5 -192t-92 -180.5t-63 -146.5t-35.5 -101.5q38 1 78 -9q7 -2 11 -8.5t2 -13.5q-1 -5 -4.5 -8.5t-8 -5t-9.5 -0.5q-42 11 -81 8q-3 -14 -17 -14q-3 0 -5 1q-7 1 -11 8
q-31 -8 -48 -20q-5 -3 -10 -3q-10 0 -16 8q-4 6 -3 13.5t8 11.5q27 20 74 28q13 43 31 93t59.5 143t89.5 181.5t123.5 197t159.5 199.5q-40 -7 -60 -22q-5 -3 -11 -3q-10 0 -15 8q-5 6 -3.5 13.5t7.5 11.5q5 4 15.5 10t41 14t64.5 8q1 2 3.5 4.5l4.5 4.5q5 5 13 5t13 -5
q4 -5 5 -12q18 -2 32 -6z" />
    <glyph glyph-name="I" unicode="&#xcc;" horiz-adv-x="328" 
d="M571 595q7 -1 11 -8t2.5 -14.5t-8.5 -11t-14 -2.5q-23 6 -47 8q-85 -88 -161 -192.5t-125.5 -192t-92 -180.5t-63 -146.5t-35.5 -101.5q38 1 78 -9q7 -2 11 -8.5t2 -13.5q-1 -5 -4.5 -8.5t-8 -5t-9.5 -0.5q-42 11 -81 8q-3 -14 -17 -14q-3 0 -5 1q-7 1 -11 8
q-31 -8 -48 -20q-5 -3 -10 -3q-10 0 -16 8q-4 6 -3 13.5t8 11.5q27 20 74 28q13 43 31 93t59.5 143t89.5 181.5t123.5 197t159.5 199.5q-40 -7 -60 -22q-5 -3 -11 -3q-10 0 -15 8q-5 6 -3.5 13.5t7.5 11.5q5 4 15.5 10t41 14t64.5 8q1 2 3.5 4.5l4.5 4.5q5 5 13 5t13 -5
q4 -5 5 -12q18 -2 32 -6z" />
    <glyph glyph-name="J" unicode="J" horiz-adv-x="566" 
d="M782 650q7 -2 11 -8.5t2 -14t-8.5 -11.5t-13.5 -2q-30 7 -59 8q-23 -73 -105 -207.5t-189 -280.5t-217 -279.5t-201 -221.5t-129 -90q-5 -1 -10 -1q-61 0 -83 45q-28 57 20 162t162 235q5 6 12.5 6.5t13.5 -5t6.5 -13t-4.5 -13.5q-110 -125 -153.5 -220t-23.5 -136
q14 -27 58 -23q34 2 152.5 129t250 294t250 345t151.5 271q-41 -6 -64 -22q-5 -4 -10 -4q-10 0 -16 8q-4 6 -3 13.5t8 12.5q35 25 96 31q6 13 20 10q9 -1 13 -9q31 -2 63 -9z" />
    <glyph glyph-name="K" unicode="K" horiz-adv-x="723" 
d="M1171 694.5q4 -6.5 2.5 -14t-7.5 -11.5l-901 -581q22 -29 48 -61t75.5 -84.5t96 -91t103.5 -68t105 -29.5q7 0 12.5 -5.5t5.5 -13t-5.5 -13t-12.5 -5.5q-54 0 -116.5 31t-112.5 72t-102 96t-79 88.5t-49 63.5l-45 -29q-138 -256 -235 -486q-5 -11 -17 -11q-4 0 -8 2
q-7 3 -10 10t0 14q17 38 43.5 97t98.5 206t143 275t166.5 269t179.5 224q6 6 13.5 5.5t13 -5.5t5.5 -13t-6 -13q-155 -153 -350 -506l920 593q6 4 13.5 2.5t11.5 -8z" />
    <glyph glyph-name="L" unicode="L" horiz-adv-x="558" 
d="M798 -219q8 -2 12.5 -8t2.5 -14q0 -5 -3.5 -8.5t-8 -5.5t-9.5 -1q-69 12 -157.5 22t-197 18.5t-213 7t-173.5 -15.5q-24 -62 -34 -97q-4 -13 -18 -13q-2 0 -5 1q-7 2 -11 8.5t-2 14.5q7 24 26 74q-32 -11 -50 -26q-20 -17 -20 -40q0 -7 -5.5 -12.5t-13 -5.5t-13 5.5
t-5.5 12.5q0 40 33 69q30 25 91 40q24 61 54 124.5t81.5 154.5t110.5 178.5t143 191.5t178 197q6 6 13.5 6t13 -5.5t5.5 -13t-6 -13.5q-110 -109 -204.5 -229t-160.5 -229t-109 -192t-75 -161q70 12 171 12.5t186.5 -5.5t179.5 -16.5t131 -16t62 -9.5z" />
    <glyph glyph-name="M" unicode="M" horiz-adv-x="1003" 
d="M1168 760q7 -7 10 -15.5t-2.5 -44t-26 -91t-68.5 -164.5t-122 -256q-134 -268 -262 -500q-3 -6 -10.5 -8.5t-14 1.5t-9 11.5t1.5 13.5q200 363 344.5 669.5t132.5 356.5l-4 -2q-28 -13 -71.5 -53.5t-107.5 -114.5t-107 -126t-122 -148q-175 -216 -245 -289.5t-101 -65.5
q-19 5 -22 29q-4 26 8 67t43 102t53.5 102t66.5 115q87 151 99 187q-37 -19 -100.5 -75.5t-148.5 -152.5t-173.5 -213t-183.5 -272t-171 -315l-7 -14l-15 5q-12 3 -16 15q-12 31 54 159.5t243 434.5q228 392 238 438q-4 5 -4 11q0 8 5.5 13.5t12.5 5.5q13 0 20 -11
q11 -20 -33 -108t-207 -368q-35 -61 -54 -93q157 230 312 390.5t224 188.5q25 9 38 -5q14 -17 -5.5 -62t-95.5 -177q-38 -65 -59 -103t-51.5 -96t-44 -97.5t-12.5 -62.5q16 7 47 38t80.5 89t83 98.5t93.5 114.5q65 81 100 123.5t92 110t92 104t73.5 70t63.5 45.5
q29 13 45 -5z" />
    <glyph glyph-name="N" unicode="N" horiz-adv-x="780" 
d="M514 -297q8 1 14 -4t7 -12.5t-4 -13.5t-12 -7q-18 -2 -31 -2q-43 0 -54 23q-12 27 21 60q186 336 300 598.5t85 286.5h-2h-1h-5l-5 2q-108 60 -407 -270q-95 -105 -275 -327q-62 -76 -99 -120.5t-81 -95.5t-70.5 -77t-54.5 -48.5t-47 -28.5t-34 0q-16 7 -21 25
q-11 46 80 175t304 391q234 287 261 343q-5 -2 -11 -6q-6 -3 -13.5 -1t-11 9t-1.5 14t9 11q48 26 65 6q5 -5 6 -12t-2.5 -19t-11 -26t-23 -37t-35.5 -49.5t-51 -66.5t-66.5 -84t-85.5 -105q-81 -100 -129 -160t-119 -153.5t-103.5 -149t-25.5 -71.5q9 -4 28 8.5t50 44t58 61
t70 81t67.5 81t68.5 84.5q237 290 351 407q251 257 371 202q1 0 3 -1q20 -1 30 -18q15 -24 0 -92.5t-55 -164t-84 -191t-99 -201t-86.5 -165t-60.5 -110.5l-3 -5q-11 -10 -14 -19q12 -4 45 0z" />
    <glyph glyph-name="N" unicode="&#xd1;" horiz-adv-x="780" 
d="M514 -297q8 1 14 -4t7 -12.5t-4 -13.5t-12 -7q-18 -2 -31 -2q-43 0 -54 23q-12 27 21 60q186 336 300 598.5t85 286.5h-2h-1h-5l-5 2q-108 60 -407 -270q-95 -105 -275 -327q-62 -76 -99 -120.5t-81 -95.5t-70.5 -77t-54.5 -48.5t-47 -28.5t-34 0q-16 7 -21 25
q-11 46 80 175t304 391q234 287 261 343q-5 -2 -11 -6q-6 -3 -13.5 -1t-11 9t-1.5 14t9 11q48 26 65 6q5 -5 6 -12t-2.5 -19t-11 -26t-23 -37t-35.5 -49.5t-51 -66.5t-66.5 -84t-85.5 -105q-81 -100 -129 -160t-119 -153.5t-103.5 -149t-25.5 -71.5q9 -4 28 8.5t50 44t58 61
t70 81t67.5 81t68.5 84.5q237 290 351 407q251 257 371 202q1 0 3 -1q20 -1 30 -18q15 -24 0 -92.5t-55 -164t-84 -191t-99 -201t-86.5 -165t-60.5 -110.5l-3 -5q-11 -10 -14 -19q12 -4 45 0z" />
    <glyph glyph-name="O" unicode="O" horiz-adv-x="995" 
d="M787 -89q-132 -176 -290 -280t-287 -104q-79 0 -133 41q-60 45 -81 128.5t-1 195.5q19 109 73.5 226t138 228t181 196.5t195.5 134.5q102 51 188.5 54t146 -41.5t80.5 -128.5t2 -196q-20 -108 -74.5 -225.5t-138.5 -228.5zM895 660q-46 34 -113 34q-81 0 -182 -50
q-95 -47 -189 -129.5t-174.5 -190.5t-133.5 -221t-72 -218q-18 -101 -0.5 -175t68.5 -112q42 -32 102 -35t129 22t142 72t147 118.5t139 157.5q81 108 134 221t71 218q18 101 0.5 175.5t-68.5 112.5z" />
    <glyph glyph-name="O" unicode="&#xd8;" horiz-adv-x="995" 
d="M787 -89q-132 -176 -290 -280t-287 -104q-79 0 -133 41q-60 45 -81 128.5t-1 195.5q19 109 73.5 226t138 228t181 196.5t195.5 134.5q102 51 188.5 54t146 -41.5t80.5 -128.5t2 -196q-20 -108 -74.5 -225.5t-138.5 -228.5zM895 660q-46 34 -113 34q-81 0 -182 -50
q-95 -47 -189 -129.5t-174.5 -190.5t-133.5 -221t-72 -218q-18 -101 -0.5 -175t68.5 -112q42 -32 102 -35t129 22t142 72t147 118.5t139 157.5q81 108 134 221t71 218q18 101 0.5 175.5t-68.5 112.5z" />
    <glyph glyph-name="O" unicode="&#xd6;" horiz-adv-x="995" 
d="M787 -89q-132 -176 -290 -280t-287 -104q-79 0 -133 41q-60 45 -81 128.5t-1 195.5q19 109 73.5 226t138 228t181 196.5t195.5 134.5q102 51 188.5 54t146 -41.5t80.5 -128.5t2 -196q-20 -108 -74.5 -225.5t-138.5 -228.5zM895 660q-46 34 -113 34q-81 0 -182 -50
q-95 -47 -189 -129.5t-174.5 -190.5t-133.5 -221t-72 -218q-18 -101 -0.5 -175t68.5 -112q42 -32 102 -35t129 22t142 72t147 118.5t139 157.5q81 108 134 221t71 218q18 101 0.5 175.5t-68.5 112.5z" />
    <glyph glyph-name="O" unicode="&#xd5;" horiz-adv-x="995" 
d="M787 -89q-132 -176 -290 -280t-287 -104q-79 0 -133 41q-60 45 -81 128.5t-1 195.5q19 109 73.5 226t138 228t181 196.5t195.5 134.5q102 51 188.5 54t146 -41.5t80.5 -128.5t2 -196q-20 -108 -74.5 -225.5t-138.5 -228.5zM895 660q-46 34 -113 34q-81 0 -182 -50
q-95 -47 -189 -129.5t-174.5 -190.5t-133.5 -221t-72 -218q-18 -101 -0.5 -175t68.5 -112q42 -32 102 -35t129 22t142 72t147 118.5t139 157.5q81 108 134 221t71 218q18 101 0.5 175.5t-68.5 112.5z" />
    <glyph glyph-name="O" unicode="&#xd4;" horiz-adv-x="995" 
d="M787 -89q-132 -176 -290 -280t-287 -104q-79 0 -133 41q-60 45 -81 128.5t-1 195.5q19 109 73.5 226t138 228t181 196.5t195.5 134.5q102 51 188.5 54t146 -41.5t80.5 -128.5t2 -196q-20 -108 -74.5 -225.5t-138.5 -228.5zM895 660q-46 34 -113 34q-81 0 -182 -50
q-95 -47 -189 -129.5t-174.5 -190.5t-133.5 -221t-72 -218q-18 -101 -0.5 -175t68.5 -112q42 -32 102 -35t129 22t142 72t147 118.5t139 157.5q81 108 134 221t71 218q18 101 0.5 175.5t-68.5 112.5z" />
    <glyph glyph-name="O" unicode="&#xd3;" horiz-adv-x="995" 
d="M787 -89q-132 -176 -290 -280t-287 -104q-79 0 -133 41q-60 45 -81 128.5t-1 195.5q19 109 73.5 226t138 228t181 196.5t195.5 134.5q102 51 188.5 54t146 -41.5t80.5 -128.5t2 -196q-20 -108 -74.5 -225.5t-138.5 -228.5zM895 660q-46 34 -113 34q-81 0 -182 -50
q-95 -47 -189 -129.5t-174.5 -190.5t-133.5 -221t-72 -218q-18 -101 -0.5 -175t68.5 -112q42 -32 102 -35t129 22t142 72t147 118.5t139 157.5q81 108 134 221t71 218q18 101 0.5 175.5t-68.5 112.5z" />
    <glyph glyph-name="O" unicode="&#xd2;" horiz-adv-x="995" 
d="M787 -89q-132 -176 -290 -280t-287 -104q-79 0 -133 41q-60 45 -81 128.5t-1 195.5q19 109 73.5 226t138 228t181 196.5t195.5 134.5q102 51 188.5 54t146 -41.5t80.5 -128.5t2 -196q-20 -108 -74.5 -225.5t-138.5 -228.5zM895 660q-46 34 -113 34q-81 0 -182 -50
q-95 -47 -189 -129.5t-174.5 -190.5t-133.5 -221t-72 -218q-18 -101 -0.5 -175t68.5 -112q42 -32 102 -35t129 22t142 72t147 118.5t139 157.5q81 108 134 221t71 218q18 101 0.5 175.5t-68.5 112.5z" />
    <glyph glyph-name="P" unicode="P" horiz-adv-x="673" 
d="M1012 756q44 -53 16 -125q-24 -58 -91.5 -124t-149 -121t-187 -112.5t-186 -95.5t-164.5 -74q-166 -286 -360 -563q-6 -8 -15 -8q-6 0 -11 4q-6 4 -7.5 11.5t2.5 13.5q172 247 333 517q-47 -20 -79 -32q-4 -1 -7 -1q-13 0 -17 12q-3 7 0 14t10 9q61 24 125 52
q178 307 221 462q2 8 8.5 11.5t14 1.5t11 -8.5t1.5 -13.5q-40 -150 -198 -428q67 30 131.5 61.5t142.5 72.5t145 83.5t128 87.5t104 92t60 90q21 51 -10 87q-39 47 -141 60.5t-221 -12.5q-177 -38 -301 -142.5t-165 -251.5q-2 -7 -9 -11t-14.5 -1.5t-11 9t-1.5 13.5
q44 157 175.5 268.5t319.5 152.5q129 27 240.5 10.5t157.5 -71.5z" />
    <glyph glyph-name="Q" unicode="Q" horiz-adv-x="952" 
d="M946 -317q8 -1 13 -6.5t5 -12.5q0 -5 -2.5 -9.5t-7 -6.5t-9.5 -2q-49 1 -111.5 4.5t-188 17t-216.5 34.5q-12 -7 -19 -10q-108 -54 -199 -54q-79 0 -135 42q-78 59 -89 184.5t47 284t172 310.5q69 91 147.5 165.5t157.5 123t153.5 74t140 20.5t112.5 -40
q79 -59 89.5 -184.5t-47.5 -284t-172 -310.5q-101 -135 -221 -231q-11 -20 -28 -41q-5 -6 -13 -7t-14 4l-1 1t-1 2q-14 -10 -32 -21q60 -12 133 -21q179 -23 336 -26zM238 -171q23 -51 185 -88q57 31 113 75q17 38 -4 60q-37 38 -130 36.5t-144 -35.5q-33 -22 -20 -48z
M99 -290q48 -36 118.5 -34.5t155.5 40.5q-142 40 -169 97q-12 27 -3.5 51.5t37.5 43.5q40 27 104.5 37.5t126.5 -1t91 -43.5q19 -21 21 -48q95 84 177 192q80 108 133.5 222t71.5 211.5t1.5 175.5t-69.5 118q-47 35 -114 35q-119 0 -268.5 -100.5t-276.5 -270.5
q-108 -144 -165 -292.5t-50 -264.5t78 -169z" />
    <glyph glyph-name="R" unicode="R" horiz-adv-x="796" 
d="M1077 631q-24 -57 -89 -121.5t-144.5 -118.5t-182 -111t-183 -95t-164.5 -75q7 -3 10 -10.5t10.5 -22t33.5 -53t60 -75.5t94 -84t130 -84.5t173.5 -70.5t220.5 -49q7 -1 12 -7t4 -14q-1 -5 -3.5 -8.5t-6.5 -5.5t-9 -2h-2q-122 17 -229 51t-180 73t-135 87.5t-97 87
t-62.5 79.5t-35.5 57.5t-12 26.5v1q-163 -277 -351 -546q-6 -8 -15 -8q-6 0 -11 4q-6 4 -7.5 11.5t2.5 13.5q172 247 333 517q-47 -20 -79 -32q-4 -1 -7 -1q-13 0 -17 12q-2 3 -1.5 6.5t2 7t4 6t5.5 3.5q61 24 125 52q178 307 221 462q2 8 8.5 11.5t14 1.5t11 -8.5
t1.5 -13.5q-40 -150 -198 -428q83 37 160 75t172 91t168 103.5t132 108.5t79 109q21 51 -10 87q-39 47 -141 60.5t-221 -12.5q-177 -38 -301 -142.5t-165 -251.5q-2 -7 -9 -11t-14.5 -1.5t-11 9t-1.5 13.5q22 78 67 146.5t108.5 122t144.5 92.5t175 60q129 27 240.5 10.5
t157.5 -71.5q44 -53 16 -125z" />
    <glyph glyph-name="S" unicode="S" horiz-adv-x="739" 
d="M645 -72q-41 -59 -161.5 -132t-255.5 -123t-215 -50q-9 0 -17 1q-75 7 -97 55q-8 15 -9 34t3.5 37t9.5 33.5t13 30t11.5 20.5t5.5 9q4 6 11.5 7.5t14 -2.5t8 -11.5t-2.5 -14.5q-18 -26 -31 -64t-1 -63q14 -29 68 -34q62 -6 193 40t256 118t166 131q19 28 11 44
q-4 9 -16.5 18t-34.5 18.5t-41.5 16.5t-53.5 16t-54 14t-58 15q-44 11 -66.5 16.5t-61 16t-59.5 18.5t-49 19.5t-43.5 22.5t-29 25.5t-19.5 29.5q-13 40 20 83q57 73 160.5 146.5t225.5 127t247 75.5t224 -9q36 -11 59.5 -27.5t31.5 -32.5t12 -33t-1 -28q-9 -56 -77.5 -116
t-163 -97.5t-176.5 -35.5q-5 1 -9 3.5t-6.5 6.5t-2.5 10q1 7 6.5 12.5t12.5 4.5q76 -2 163.5 34t148 88t68.5 96q9 53 -77 80q-92 29 -211 6.5t-236 -74t-217 -122t-152 -137.5q-22 -28 -15 -49q5 -13 19.5 -25.5t40.5 -24.5t49.5 -21t63.5 -20t63 -17t66 -16
q45 -12 67.5 -17.5t59.5 -16t57 -18.5t43 -18.5t36 -22.5t20 -25q17 -36 -15 -82z" />
    <glyph glyph-name="T" unicode="T" horiz-adv-x="443" 
d="M1296 655q4 0 7.5 -1.5t5.5 -4.5t3.5 -6.5t0.5 -6.5q0 -8 -6 -13t-13 -5q-96 6 -210.5 9.5t-267.5 1.5t-281 -11q-32 -103 -103.5 -252t-142 -275t-154 -265t-118.5 -194t-57 -90q-6 -9 -15 -9q-6 0 -11 4q-6 5 -7.5 13t2.5 15q19 28 50.5 78.5t114 187t152 260.5
t142.5 272.5t107 250.5q-389 -34 -443 -134q-5 -10 -16 -10q-5 0 -9 2q-7 4 -9 11.5t1 13.5q64 119 488 155q5 15 8 27q2 8 8.5 12.5t14 2t11 -9.5t1.5 -15q0 -2 -0.5 -4.5t-1.5 -5t-1 -3.5q80 5 170 8t171 3t150 -1.5t129 -4t86.5 -4t42.5 -2.5z" />
    <glyph glyph-name="U" unicode="U" horiz-adv-x="731" 
d="M493 69q-396 -414 -494 -414q-6 0 -14 2q-35 9 -43 52q-13 72 49.5 226.5t162.5 305.5t186 214q6 4 13.5 3t12 -7.5t3.5 -14t-7 -11.5q-73 -54 -169.5 -196.5t-161.5 -293.5t-52 -219q3 -20 15 -23q7 -2 19.5 2t47 26t82 61.5t131.5 119.5t189 189q49 51 100.5 106.5
t94.5 103t82 91.5t66.5 76t45 52.5t20.5 25.5l1 -1q7 9 9 10q12 4 20.5 -6t1.5 -22q-1 -1 -4 -5q-27 -41 -81.5 -136.5t-127 -232.5t-125 -271.5t-52.5 -206.5q0 -7 -5.5 -12.5t-13 -5.5t-13 5.5t-5.5 12.5q0 149 198 526q32 61 89 162q-139 -156 -271 -294z" />
    <glyph glyph-name="U" unicode="&#xdc;" horiz-adv-x="731" 
d="M493 69q-396 -414 -494 -414q-6 0 -14 2q-35 9 -43 52q-13 72 49.5 226.5t162.5 305.5t186 214q6 4 13.5 3t12 -7.5t3.5 -14t-7 -11.5q-73 -54 -169.5 -196.5t-161.5 -293.5t-52 -219q3 -20 15 -23q7 -2 19.5 2t47 26t82 61.5t131.5 119.5t189 189q49 51 100.5 106.5
t94.5 103t82 91.5t66.5 76t45 52.5t20.5 25.5l1 -1q7 9 9 10q12 4 20.5 -6t1.5 -22q-1 -1 -4 -5q-27 -41 -81.5 -136.5t-127 -232.5t-125 -271.5t-52.5 -206.5q0 -7 -5.5 -12.5t-13 -5.5t-13 5.5t-5.5 12.5q0 149 198 526q32 61 89 162q-139 -156 -271 -294z" />
    <glyph glyph-name="U" unicode="&#xdb;" horiz-adv-x="731" 
d="M493 69q-396 -414 -494 -414q-6 0 -14 2q-35 9 -43 52q-13 72 49.5 226.5t162.5 305.5t186 214q6 4 13.5 3t12 -7.5t3.5 -14t-7 -11.5q-73 -54 -169.5 -196.5t-161.5 -293.5t-52 -219q3 -20 15 -23q7 -2 19.5 2t47 26t82 61.5t131.5 119.5t189 189q49 51 100.5 106.5
t94.5 103t82 91.5t66.5 76t45 52.5t20.5 25.5l1 -1q7 9 9 10q12 4 20.5 -6t1.5 -22q-1 -1 -4 -5q-27 -41 -81.5 -136.5t-127 -232.5t-125 -271.5t-52.5 -206.5q0 -7 -5.5 -12.5t-13 -5.5t-13 5.5t-5.5 12.5q0 149 198 526q32 61 89 162q-139 -156 -271 -294z" />
    <glyph glyph-name="U" unicode="&#xda;" horiz-adv-x="731" 
d="M493 69q-396 -414 -494 -414q-6 0 -14 2q-35 9 -43 52q-13 72 49.5 226.5t162.5 305.5t186 214q6 4 13.5 3t12 -7.5t3.5 -14t-7 -11.5q-73 -54 -169.5 -196.5t-161.5 -293.5t-52 -219q3 -20 15 -23q7 -2 19.5 2t47 26t82 61.5t131.5 119.5t189 189q49 51 100.5 106.5
t94.5 103t82 91.5t66.5 76t45 52.5t20.5 25.5l1 -1q7 9 9 10q12 4 20.5 -6t1.5 -22q-1 -1 -4 -5q-27 -41 -81.5 -136.5t-127 -232.5t-125 -271.5t-52.5 -206.5q0 -7 -5.5 -12.5t-13 -5.5t-13 5.5t-5.5 12.5q0 149 198 526q32 61 89 162q-139 -156 -271 -294z" />
    <glyph glyph-name="U" unicode="&#xd9;" horiz-adv-x="731" 
d="M493 69q-396 -414 -494 -414q-6 0 -14 2q-35 9 -43 52q-13 72 49.5 226.5t162.5 305.5t186 214q6 4 13.5 3t12 -7.5t3.5 -14t-7 -11.5q-73 -54 -169.5 -196.5t-161.5 -293.5t-52 -219q3 -20 15 -23q7 -2 19.5 2t47 26t82 61.5t131.5 119.5t189 189q49 51 100.5 106.5
t94.5 103t82 91.5t66.5 76t45 52.5t20.5 25.5l1 -1q7 9 9 10q12 4 20.5 -6t1.5 -22q-1 -1 -4 -5q-27 -41 -81.5 -136.5t-127 -232.5t-125 -271.5t-52.5 -206.5q0 -7 -5.5 -12.5t-13 -5.5t-13 5.5t-5.5 12.5q0 149 198 526q32 61 89 162q-139 -156 -271 -294z" />
    <glyph glyph-name="V" unicode="V" horiz-adv-x="500" 
d="M26 -381h-10q-14 0 -26 8q-18 14 -25 40t-2.5 68t14.5 86t32.5 111t43.5 125.5t54 144.5q23 62 35.5 96.5t30.5 84.5t25 79.5t4 40.5q-13 5 -12 19q0 7 5.5 12.5t13.5 5.5q15 -1 24 -14q15 -22 -4.5 -90.5t-87.5 -246.5q-25 -68 -39.5 -106t-38.5 -107t-36 -112
t-22.5 -91.5t-8 -77t15.5 -38.5q3 -2 7 -1q15 2 35 18.5t47 49t52.5 64.5t62 85.5t62.5 92t67.5 103t63 99.5t62.5 100q182 290 249.5 379.5t101.5 79.5q7 -2 10.5 -9t1.5 -14q-5 -16 -21 -13q-10 -3 -27.5 -21.5t-45 -57t-51.5 -73t-62.5 -95t-61 -96t-63.5 -100.5
q-66 -106 -110 -175t-95.5 -147t-87 -126t-71.5 -91t-63 -64.5t-49 -25.5z" />
    <glyph glyph-name="W" unicode="W" horiz-adv-x="633" 
d="M316 -375l-7 -8l-10 2q-12 1 -19 12q-17 25 2.5 134.5t83.5 371.5q39 158 50 212q-33 -52 -127 -212q-88 -150 -140.5 -235t-86 -132t-49 -60t-28.5 -10q-17 3 -22 26q-9 33 2.5 132t35.5 211t64.5 215.5t82.5 139.5q6 5 13.5 4.5t12.5 -6.5t4.5 -13.5t-6.5 -12.5
q-36 -31 -72.5 -125.5t-59.5 -199t-36 -198.5t-8 -129q46 47 261 411q87 148 122 204.5t48 65.5t24 1q15 -6 7.5 -53.5t-56.5 -244.5q-90 -369 -93 -450q56 81 169 295.5t170.5 331t87.5 178.5q4 7 11 9.5t14 -1t9.5 -10.5t-0.5 -14q-25 -51 -65.5 -132.5t-121.5 -242
t-155 -291t-112 -176.5z" />
    <glyph glyph-name="X" unicode="X" horiz-adv-x="517" 
d="M1087 808.5q4 -6.5 2 -14t-8 -11.5q-16 -10 -48.5 -31t-120 -79.5t-174.5 -120t-201.5 -147.5t-211.5 -167q32 -185 121 -398q38 -93 86 -187t68.5 -129t29.5 -49q4 -6 2.5 -13.5t-8.5 -11.5q-4 -3 -10 -3q-10 0 -15 9q-5 6 -12 18.5t-29 51t-43 79t-49.5 101
t-53.5 119.5q-87 208 -120 386q-298 -252 -403 -425q-5 -9 -15 -9q-6 0 -10 3q-7 4 -8.5 11.5t2.5 13.5q111 185 427 448q-25 159 -4 288q1 7 7.5 11.5t14 3.5t12 -7.5t3.5 -13.5q-19 -112 1 -254q107 89 234 183q269 200 508 350q7 5 14.5 3t11.5 -8.5z" />
    <glyph glyph-name="Y" unicode="Y" horiz-adv-x="720" 
d="M54 -521q-56 -35 -99 -35q-37 0 -64 25q-38 35 -26 77q29 105 436 233q95 120 201 279q66 99 127.5 199.5t102 173t63.5 120.5q-32 -32 -124 -132q-78 -86 -132.5 -143.5t-121.5 -123.5t-114.5 -105t-94 -65t-77.5 -26q-36 0 -61 15t-37 43q-32 80 52 230t249 307
q6 5 13.5 5t13 -5.5t5 -13.5t-5.5 -13q-166 -158 -242 -295.5t-50 -200.5q14 -35 63 -35q18 0 43.5 11.5t58 36t63.5 50t72.5 66t71 70t74 76.5t67 72t63.5 69q54 59 82.5 89.5t52 53t34 29.5t19.5 7q15 0 19 -15q8 -28 -88 -197t-195 -321q-106 -162 -205 -292
q292 87 638 155q7 1 13.5 -3t8 -11.5t-2.5 -14t-12 -8.5q-262 -51 -540 -127q-78 -22 -146 -42q-159 -201 -268 -268zM-6 -510q100 38 264 236q-82 -27 -146 -52.5t-101.5 -45.5t-62.5 -38.5t-35 -30.5t-13 -23q-5 -20 16 -40q28 -25 78 -6z" />
    <glyph glyph-name="Y" unicode="&#xdd;" horiz-adv-x="720" 
d="M54 -521q-56 -35 -99 -35q-37 0 -64 25q-38 35 -26 77q29 105 436 233q95 120 201 279q66 99 127.5 199.5t102 173t63.5 120.5q-32 -32 -124 -132q-78 -86 -132.5 -143.5t-121.5 -123.5t-114.5 -105t-94 -65t-77.5 -26q-36 0 -61 15t-37 43q-32 80 52 230t249 307
q6 5 13.5 5t13 -5.5t5 -13.5t-5.5 -13q-166 -158 -242 -295.5t-50 -200.5q14 -35 63 -35q18 0 43.5 11.5t58 36t63.5 50t72.5 66t71 70t74 76.5t67 72t63.5 69q54 59 82.5 89.5t52 53t34 29.5t19.5 7q15 0 19 -15q8 -28 -88 -197t-195 -321q-106 -162 -205 -292
q292 87 638 155q7 1 13.5 -3t8 -11.5t-2.5 -14t-12 -8.5q-262 -51 -540 -127q-78 -22 -146 -42q-159 -201 -268 -268zM-6 -510q100 38 264 236q-82 -27 -146 -52.5t-101.5 -45.5t-62.5 -38.5t-35 -30.5t-13 -23q-5 -20 16 -40q28 -25 78 -6z" />
    <glyph glyph-name="Z" unicode="Z" horiz-adv-x="633" 
d="M939 610q1 -3 0 -8q1 -4 0 -7q-1 -7 -7.5 -11.5t-13.5 -3.5q-2 1 -6 1q-132 -47 -316 -157t-343.5 -227t-283.5 -220t-161 -148q5 2 12 5q66 43 140.5 75t143 49.5t142 26.5t134.5 10.5t122.5 -2.5t104.5 -10t82.5 -14t53 -11.5t20.5 -5.5t11 -9t1 -14q-1 -5 -4.5 -8.5
t-8.5 -4.5t-10 0q-10 4 -31.5 9t-82 15t-123.5 15t-151.5 2.5t-172 -17t-177.5 -49.5t-175 -89l-3 -2q-33 -14 -49 -14q-12 0 -19 6q-11 9 -9 25q6 32 120.5 133.5t273.5 221t352 240t336 181.5q-68 10 -136 17t-142 9.5t-131 -5.5t-80 -28q-14 -11 -14 -27q0 -7 -5.5 -12.5
t-13 -5.5t-13 5.5t-5.5 12.5q0 33 27 55q28 24 91 34t129 9t146.5 -8.5t126.5 -14.5t88 -14q1 0 3 0.5t3 1.5q8 2 14.5 -1t9.5 -11z" />
    <glyph glyph-name="a" unicode="a" horiz-adv-x="624" 
d="M114 35q-54 -34 -80 -34q-25 0 -43 22q-19 23 -11 47q6 18 25.5 33t44.5 25t41 15t29 8q4 1 7.5 0t6.5 -2.5t5.5 -4.5t3.5 -7q1 -8 -3 -14.5t-11 -7.5q-37 -9 -72.5 -25t-40.5 -31q-2 -6 4 -13q10 -10 25 -5.5t50 26.5q19 12 30 18t29 12.5t33.5 4.5t29.5 -13l3 -2l1 -3
q13 -20 56.5 -24.5t102.5 3.5t121 23t119 34q5 2 10 1t8.5 -4.5t5.5 -8.5q1 -3 0.5 -7t-2 -7t-4 -5.5t-6.5 -3.5q-30 -10 -64.5 -20t-97.5 -24t-113.5 -19t-98 4t-66.5 35q-12 8 -29 1t-49 -27z" />
    <glyph glyph-name="a" unicode="&#xe5;" horiz-adv-x="624" 
d="M114 35q-54 -34 -80 -34q-25 0 -43 22q-19 23 -11 47q6 18 25.5 33t44.5 25t41 15t29 8q4 1 7.5 0t6.5 -2.5t5.5 -4.5t3.5 -7q1 -8 -3 -14.5t-11 -7.5q-37 -9 -72.5 -25t-40.5 -31q-2 -6 4 -13q10 -10 25 -5.5t50 26.5q19 12 30 18t29 12.5t33.5 4.5t29.5 -13l3 -2l1 -3
q13 -20 56.5 -24.5t102.5 3.5t121 23t119 34q5 2 10 1t8.5 -4.5t5.5 -8.5q1 -3 0.5 -7t-2 -7t-4 -5.5t-6.5 -3.5q-30 -10 -64.5 -20t-97.5 -24t-113.5 -19t-98 4t-66.5 35q-12 8 -29 1t-49 -27z" />
    <glyph glyph-name="a" unicode="&#xe4;" horiz-adv-x="624" 
d="M114 35q-54 -34 -80 -34q-25 0 -43 22q-19 23 -11 47q6 18 25.5 33t44.5 25t41 15t29 8q4 1 7.5 0t6.5 -2.5t5.5 -4.5t3.5 -7q1 -8 -3 -14.5t-11 -7.5q-37 -9 -72.5 -25t-40.5 -31q-2 -6 4 -13q10 -10 25 -5.5t50 26.5q19 12 30 18t29 12.5t33.5 4.5t29.5 -13l3 -2l1 -3
q13 -20 56.5 -24.5t102.5 3.5t121 23t119 34q5 2 10 1t8.5 -4.5t5.5 -8.5q1 -3 0.5 -7t-2 -7t-4 -5.5t-6.5 -3.5q-30 -10 -64.5 -20t-97.5 -24t-113.5 -19t-98 4t-66.5 35q-12 8 -29 1t-49 -27z" />
    <glyph glyph-name="a" unicode="&#xe3;" horiz-adv-x="624" 
d="M114 35q-54 -34 -80 -34q-25 0 -43 22q-19 23 -11 47q6 18 25.5 33t44.5 25t41 15t29 8q4 1 7.5 0t6.5 -2.5t5.5 -4.5t3.5 -7q1 -8 -3 -14.5t-11 -7.5q-37 -9 -72.5 -25t-40.5 -31q-2 -6 4 -13q10 -10 25 -5.5t50 26.5q19 12 30 18t29 12.5t33.5 4.5t29.5 -13l3 -2l1 -3
q13 -20 56.5 -24.5t102.5 3.5t121 23t119 34q5 2 10 1t8.5 -4.5t5.5 -8.5q1 -3 0.5 -7t-2 -7t-4 -5.5t-6.5 -3.5q-30 -10 -64.5 -20t-97.5 -24t-113.5 -19t-98 4t-66.5 35q-12 8 -29 1t-49 -27z" />
    <glyph glyph-name="a" unicode="&#xe2;" horiz-adv-x="624" 
d="M114 35q-54 -34 -80 -34q-25 0 -43 22q-19 23 -11 47q6 18 25.5 33t44.5 25t41 15t29 8q4 1 7.5 0t6.5 -2.5t5.5 -4.5t3.5 -7q1 -8 -3 -14.5t-11 -7.5q-37 -9 -72.5 -25t-40.5 -31q-2 -6 4 -13q10 -10 25 -5.5t50 26.5q19 12 30 18t29 12.5t33.5 4.5t29.5 -13l3 -2l1 -3
q13 -20 56.5 -24.5t102.5 3.5t121 23t119 34q5 2 10 1t8.5 -4.5t5.5 -8.5q1 -3 0.5 -7t-2 -7t-4 -5.5t-6.5 -3.5q-30 -10 -64.5 -20t-97.5 -24t-113.5 -19t-98 4t-66.5 35q-12 8 -29 1t-49 -27z" />
    <glyph glyph-name="a" unicode="&#xe1;" horiz-adv-x="624" 
d="M114 35q-54 -34 -80 -34q-25 0 -43 22q-19 23 -11 47q6 18 25.5 33t44.5 25t41 15t29 8q4 1 7.5 0t6.5 -2.5t5.5 -4.5t3.5 -7q1 -8 -3 -14.5t-11 -7.5q-37 -9 -72.5 -25t-40.5 -31q-2 -6 4 -13q10 -10 25 -5.5t50 26.5q19 12 30 18t29 12.5t33.5 4.5t29.5 -13l3 -2l1 -3
q13 -20 56.5 -24.5t102.5 3.5t121 23t119 34q5 2 10 1t8.5 -4.5t5.5 -8.5q1 -3 0.5 -7t-2 -7t-4 -5.5t-6.5 -3.5q-30 -10 -64.5 -20t-97.5 -24t-113.5 -19t-98 4t-66.5 35q-12 8 -29 1t-49 -27z" />
    <glyph glyph-name="a" unicode="&#xe0;" horiz-adv-x="624" 
d="M114 35q-54 -34 -80 -34q-25 0 -43 22q-19 23 -11 47q6 18 25.5 33t44.5 25t41 15t29 8q4 1 7.5 0t6.5 -2.5t5.5 -4.5t3.5 -7q1 -8 -3 -14.5t-11 -7.5q-37 -9 -72.5 -25t-40.5 -31q-2 -6 4 -13q10 -10 25 -5.5t50 26.5q19 12 30 18t29 12.5t33.5 4.5t29.5 -13l3 -2l1 -3
q13 -20 56.5 -24.5t102.5 3.5t121 23t119 34q5 2 10 1t8.5 -4.5t5.5 -8.5q1 -3 0.5 -7t-2 -7t-4 -5.5t-6.5 -3.5q-30 -10 -64.5 -20t-97.5 -24t-113.5 -19t-98 4t-66.5 35q-12 8 -29 1t-49 -27z" />
    <glyph glyph-name="b" unicode="b" horiz-adv-x="590" 
d="M10 -43h-6q-8 0 -13.5 4t-8.5 13q-7 23 23.5 135t75.5 239t99.5 233.5t90.5 116.5q38 12 55 -41l1 -5l-1 -5q-20 -79 -54.5 -158t-66.5 -132.5t-68.5 -103.5t-51.5 -67.5t-24 -27.5q-2 -2 -4 -3q-22 -72 -32 -119q39 55 76 85t72 18q26 -9 27 -32q1 -39 -82 -93
q139 15 483 100q7 2 14 -2t8.5 -11.5t-2.5 -14t-11 -8.5q-152 -38 -262 -61t-164 -31.5t-86 -8t-38 3.5t-9 9q-4 7 -2 16q-8 -11 -19 -26l-14 -21zM161 104q-3 1 -7 1q-31 0 -92 -81l1 1q26 11 60.5 38t38.5 40zM289 651q-4 10 -8 12q-1 -1 -3.5 -2t-5 -3.5t-6.5 -7
t-9 -10.5q-25 -32 -56.5 -98.5t-60 -140.5t-55.5 -155q150 197 204 405z" />
    <glyph glyph-name="c" unicode="c" horiz-adv-x="479" 
d="M243 2q-154 -40 -227 -40q-57 0 -71 27t20.5 69.5t124.5 108.5q7 4 14.5 3t12 -7t3 -13.5t-7.5 -12.5q-62 -46 -95.5 -79t-36.5 -40.5t-2 -11.5q14 -21 165.5 10.5t338.5 94.5q7 2 14 -1t9 -10.5t-1 -14.5t-11 -9q-137 -45 -250 -74z" />
    <glyph glyph-name="c" unicode="&#xe7;" horiz-adv-x="479" 
d="M243 2q-154 -40 -227 -40q-57 0 -71 27t20.5 69.5t124.5 108.5q7 4 14.5 3t12 -7t3 -13.5t-7.5 -12.5q-62 -46 -95.5 -79t-36.5 -40.5t-2 -11.5q14 -21 165.5 10.5t338.5 94.5q7 2 14 -1t9 -10.5t-1 -14.5t-11 -9q-137 -45 -250 -74z" />
    <glyph glyph-name="d" unicode="d" horiz-adv-x="751" 
d="M206 89q-108 -129 -183 -129q-11 0 -21 3l-3 1l-2 2q-42 28 -38 64q3 21 20 41t42 35t41 22.5t29 12.5q8 3 15 0t9.5 -10t-0.5 -14t-10 -10q-38 -15 -72.5 -38.5t-36.5 -42.5q-1 -13 19 -28q32 -6 83 34t110 117q-4 63 7 139.5t34.5 150t54.5 128.5q64 113 137 108
q23 0 34 -23q15 -34 -15.5 -124.5t-89 -196t-124.5 -193.5q6 -57 25 -83q16 -20 164.5 -0.5t336.5 66.5q8 1 14.5 -3t8 -11t-2.5 -14t-11 -8q-72 -18 -143.5 -33t-162.5 -30t-155 -13t-80 24q-17 25 -26 65q-4 -5 -8 -9zM438 638h-3q-48 0 -98 -89q-29 -51 -50 -113.5
t-31.5 -122.5t-11.5 -115q46 67 90 146q29 51 51 98.5t33.5 79.5t19 59.5t6.5 39t-4 17.5h-2z" />
    <glyph glyph-name="e" unicode="e" horiz-adv-x="516" 
d="M568 87q-13 -8 -31.5 -17.5t-68 -32.5t-96.5 -40t-107.5 -31t-110.5 -14q-67 0 -113 24q-74 40 -62 91q5 24 30.5 44.5t56 30.5t57.5 11q46 2 55 -28q13 -44 -12 -71q-36 -39 -140 -22q11 -12 33 -23q31 -17 75.5 -19.5t88 5t93 23t87 31t75 33.5t51 25.5t20.5 11.5
q7 3 14.5 1t11 -8.5t1.5 -14t-8 -10.5zM66 102q-32 -14 -45 -31q94 -18 117 8q11 12 4 36q-1 4 -26 1t-50 -14z" />
    <glyph glyph-name="e" unicode="&#xeb;" horiz-adv-x="516" 
d="M568 87q-13 -8 -31.5 -17.5t-68 -32.5t-96.5 -40t-107.5 -31t-110.5 -14q-67 0 -113 24q-74 40 -62 91q5 24 30.5 44.5t56 30.5t57.5 11q46 2 55 -28q13 -44 -12 -71q-36 -39 -140 -22q11 -12 33 -23q31 -17 75.5 -19.5t88 5t93 23t87 31t75 33.5t51 25.5t20.5 11.5
q7 3 14.5 1t11 -8.5t1.5 -14t-8 -10.5zM66 102q-32 -14 -45 -31q94 -18 117 8q11 12 4 36q-1 4 -26 1t-50 -14z" />
    <glyph glyph-name="e" unicode="&#xea;" horiz-adv-x="516" 
d="M568 87q-13 -8 -31.5 -17.5t-68 -32.5t-96.5 -40t-107.5 -31t-110.5 -14q-67 0 -113 24q-74 40 -62 91q5 24 30.5 44.5t56 30.5t57.5 11q46 2 55 -28q13 -44 -12 -71q-36 -39 -140 -22q11 -12 33 -23q31 -17 75.5 -19.5t88 5t93 23t87 31t75 33.5t51 25.5t20.5 11.5
q7 3 14.5 1t11 -8.5t1.5 -14t-8 -10.5zM66 102q-32 -14 -45 -31q94 -18 117 8q11 12 4 36q-1 4 -26 1t-50 -14z" />
    <glyph glyph-name="e" unicode="&#xe9;" horiz-adv-x="516" 
d="M568 87q-13 -8 -31.5 -17.5t-68 -32.5t-96.5 -40t-107.5 -31t-110.5 -14q-67 0 -113 24q-74 40 -62 91q5 24 30.5 44.5t56 30.5t57.5 11q46 2 55 -28q13 -44 -12 -71q-36 -39 -140 -22q11 -12 33 -23q31 -17 75.5 -19.5t88 5t93 23t87 31t75 33.5t51 25.5t20.5 11.5
q7 3 14.5 1t11 -8.5t1.5 -14t-8 -10.5zM66 102q-32 -14 -45 -31q94 -18 117 8q11 12 4 36q-1 4 -26 1t-50 -14z" />
    <glyph glyph-name="e" unicode="&#xe8;" horiz-adv-x="516" 
d="M568 87q-13 -8 -31.5 -17.5t-68 -32.5t-96.5 -40t-107.5 -31t-110.5 -14q-67 0 -113 24q-74 40 -62 91q5 24 30.5 44.5t56 30.5t57.5 11q46 2 55 -28q13 -44 -12 -71q-36 -39 -140 -22q11 -12 33 -23q31 -17 75.5 -19.5t88 5t93 23t87 31t75 33.5t51 25.5t20.5 11.5
q7 3 14.5 1t11 -8.5t1.5 -14t-8 -10.5zM66 102q-32 -14 -45 -31q94 -18 117 8q11 12 4 36q-1 4 -26 1t-50 -14z" />
    <glyph glyph-name="f" unicode="f" horiz-adv-x="539" 
d="M-85 -423h-1q-7 0 -13.5 3t-11 11t-5.5 19q-3 34 51 250q-54 37 -76 59t-19 42q4 20 29 27l5 1q41 0 97 6q33 122 69 230.5t77 210.5t82.5 163.5t75.5 65.5q30 3 43 -19q14 -22 -4 -79t-50.5 -120t-80.5 -142t-80.5 -128.5t-64.5 -95.5q-2 -3 -5 -5q-11 -37 -22 -76
q101 15 241.5 47t198 47.5t93.5 25.5q7 3 13.5 -1t9 -11.5t-1.5 -14t-11 -8.5q-41 -12 -103.5 -29t-205.5 -49t-245 -46q-12 -45 -23 -85q35 -24 51.5 -37t28 -26t11.5 -24q0 -7 -4 -14q-8 -44 -62 -120t-87 -78zM27 -209q-11 13 -60 47q-45 -178 -46 -220q25 17 65.5 80
t40.5 85v8zM-40 -43q-45 -5 -80 -5q10 -16 65 -54q8 32 15 59zM286 628h-4h-3q-38 -4 -93 -124.5t-115 -307.5q74 114 128 211t76 154t11 67z" />
    <glyph glyph-name="g" unicode="g" horiz-adv-x="748" 
d="M168 -188q-88 -155 -133 -155q-3 0 -8 1q-25 6 -29 45q-11 80 168 183q37 71 61.5 133.5t23.5 81.5q-15 3 -96 -45q-36 -21 -54.5 -31t-43 -17t-39.5 -1q-19 7 -29 22.5t-6 34.5q5 30 42.5 53t99.5 23q7 0 12.5 -5.5t5.5 -13t-5.5 -13t-12.5 -5.5q-33 0 -58 -8t-35.5 -18
t-12.5 -20q-2 -11 12 -16q16 -6 105 47q31 18 46.5 26.5t37.5 17t36 7t24 -12.5q29 -31 -58 -210q92 47 221 97t194.5 71t116.5 36q7 3 14 -1t9 -11t-1.5 -14t-10.5 -9q-147 -44 -305 -105t-267 -121q-9 -17 -25 -47zM97 -233q16 25 34 55q-103 -68 -96 -115q1 -7 2 -11
q21 13 60 71z" />
    <glyph glyph-name="h" unicode="h" horiz-adv-x="645" 
d="M23 -27q-15 -19 -29 -19q-5 0 -10 3q-9 4 -12.5 11t1 43.5t23.5 102.5q13 45 34.5 107t56 146t69.5 152t76 114.5t75 43.5q29 -3 39 -27q8 -19 -2 -55.5t-31.5 -78.5t-54 -94.5t-63.5 -97t-66.5 -92t-56 -74t-38.5 -48.5v-1q-18 -58 -24 -93q63 81 89.5 102.5t67.5 21.5
q16 0 30 -9t21.5 -18t19.5 -26q10 -16 16.5 -24.5t19 -18.5t25.5 -14q22 -6 86.5 8.5t131 36t127.5 45.5q7 3 14 0t9.5 -10.5t-0.5 -14.5t-10 -10q-26 -10 -62.5 -22.5t-102.5 -34t-122 -31.5t-81 -2q-20 5 -37 18.5t-25 24t-20 28.5q-14 20 -22 28.5t-18 8.5
q-30 0 -50.5 -19t-90.5 -107zM304 640h-1q-18 0 -47 -34q-46 -53 -96.5 -162.5t-92.5 -231.5q73 97 131 184t90.5 153t23.5 87q-1 3 -8 4z" />
    <glyph glyph-name="i" unicode="i" horiz-adv-x="401" 
d="M431.5 108.5q2.5 -7.5 -1 -14t-10.5 -9.5q-352 -119 -423 -119q-6 0 -10 1q-14 4 -21 19q-18 41 35 158q3 7 10.5 10t14.5 -0.5t9.5 -10.5t-0.5 -14q-18 -40 -28.5 -78t-6.5 -49q22 -1 144.5 34.5t263.5 83.5q7 3 14 -0.5t9.5 -11zM38.5 195q-7.5 0 -13 5.5t-5.5 13
t5.5 12.5t13 5t12.5 -5t5 -12.5t-5 -13t-12.5 -5.5z" />
    <glyph glyph-name="i" unicode="&#xef;" horiz-adv-x="401" 
d="M431.5 108.5q2.5 -7.5 -1 -14t-10.5 -9.5q-352 -119 -423 -119q-6 0 -10 1q-14 4 -21 19q-18 41 35 158q3 7 10.5 10t14.5 -0.5t9.5 -10.5t-0.5 -14q-18 -40 -28.5 -78t-6.5 -49q22 -1 144.5 34.5t263.5 83.5q7 3 14 -0.5t9.5 -11zM38.5 195q-7.5 0 -13 5.5t-5.5 13
t5.5 12.5t13 5t12.5 -5t5 -12.5t-5 -13t-12.5 -5.5z" />
    <glyph glyph-name="i" unicode="&#xee;" horiz-adv-x="401" 
d="M431.5 108.5q2.5 -7.5 -1 -14t-10.5 -9.5q-352 -119 -423 -119q-6 0 -10 1q-14 4 -21 19q-18 41 35 158q3 7 10.5 10t14.5 -0.5t9.5 -10.5t-0.5 -14q-18 -40 -28.5 -78t-6.5 -49q22 -1 144.5 34.5t263.5 83.5q7 3 14 -0.5t9.5 -11zM38.5 195q-7.5 0 -13 5.5t-5.5 13
t5.5 12.5t13 5t12.5 -5t5 -12.5t-5 -13t-12.5 -5.5z" />
    <glyph glyph-name="i" unicode="&#xed;" horiz-adv-x="401" 
d="M431.5 108.5q2.5 -7.5 -1 -14t-10.5 -9.5q-352 -119 -423 -119q-6 0 -10 1q-14 4 -21 19q-18 41 35 158q3 7 10.5 10t14.5 -0.5t9.5 -10.5t-0.5 -14q-18 -40 -28.5 -78t-6.5 -49q22 -1 144.5 34.5t263.5 83.5q7 3 14 -0.5t9.5 -11zM38.5 195q-7.5 0 -13 5.5t-5.5 13
t5.5 12.5t13 5t12.5 -5t5 -12.5t-5 -13t-12.5 -5.5z" />
    <glyph glyph-name="i" unicode="&#xec;" horiz-adv-x="401" 
d="M431.5 108.5q2.5 -7.5 -1 -14t-10.5 -9.5q-352 -119 -423 -119q-6 0 -10 1q-14 4 -21 19q-18 41 35 158q3 7 10.5 10t14.5 -0.5t9.5 -10.5t-0.5 -14q-18 -40 -28.5 -78t-6.5 -49q22 -1 144.5 34.5t263.5 83.5q7 3 14 -0.5t9.5 -11zM38.5 195q-7.5 0 -13 5.5t-5.5 13
t5.5 12.5t13 5t12.5 -5t5 -12.5t-5 -13t-12.5 -5.5z" />
    <glyph glyph-name="j" unicode="j" horiz-adv-x="304" 
d="M337 108q2 -7 -1.5 -14t-10.5 -9q-195 -61 -363 -141q-60 -105 -129 -188t-113 -94q-7 -2 -13 -2q-37 0 -49 44q-9 34 9.5 70.5t60.5 71t92.5 65.5t115.5 62q75 134 73 173q-14 1 -17 15q-1 8 3 14t11 8q15 2 25 -4.5t13 -20.5q9 -40 -52 -159q155 69 322 121q7 3 14 -1
t9 -11zM-212 -241q54 61 112 154q-105 -55 -161.5 -106.5t-44.5 -92.5q4 -15 10 -17q4 0 10 1t27 16.5t47 44.5zM25 195q-7 0 -12.5 5.5t-5.5 13t5.5 12.5t12.5 5t12.5 -5t5.5 -12.5t-5.5 -13t-12.5 -5.5z" />
    <glyph glyph-name="k" unicode="k" horiz-adv-x="554" 
d="M0 66q-26 -73 -36.5 -93t-24.5 -20h-1q-15 1 -20 17q-11 39 31 94q9 11 19 22q8 22 17 50q0 2 2 4q1 6 5 16.5t6 16.5q31 92 54.5 158.5t47.5 126.5t43 98t37.5 66t35.5 38.5t33 6.5q21 -5 29 -24q11 -29 -14 -96t-74 -151.5t-86 -143t-73 -113.5q45 31 78 31
q24 -1 29 -17q4 -13 -5 -23t-36 -30q-44 -33 -49 -44q8 -5 19 -13q17 -11 26.5 -16.5t25.5 -12.5t35.5 -9.5t45.5 -2.5q38 0 131.5 32t144 53t75.5 33q7 3 14.5 0t10.5 -10t0 -14t-10 -10q-34 -16 -82.5 -36t-145 -52.5t-138.5 -32.5q-39 0 -69.5 7.5t-45.5 15.5t-39 25
q-12 8 -19 13q-17 10 -17 28q-1 18 20 39q-16 -12 -30 -27zM241 631q-2 0 -5 -1.5t-11 -9.5t-17.5 -22.5t-25 -44.5t-32.5 -70q-34 -80 -82 -219q82 130 134 233.5t41 131.5q0 2 -2 2z" />
    <glyph glyph-name="l" unicode="l" horiz-adv-x="476" 
d="M504 90q-35 -35 -180.5 -87.5t-237.5 -52.5q-23 0 -39 4q-39 8 -48 64q-9 51 9.5 146t54 193t88 184.5t104.5 118.5q39 25 58 6q6 -6 8 -11t0 -24t-14 -47.5t-39.5 -83.5t-71.5 -129q-78 -133 -150 -243q-3 -5 -8 -7q-9 -61 -3 -97q6 -31 20 -34q48 -11 145 13.5
t177.5 58.5t100.5 54q5 5 12.5 5t13 -5.5t5.5 -13t-5 -12.5zM56 212q59 93 109 179t83 152.5t37 90.5q-5 -2 -10 -5q-43 -27 -90 -102t-86 -180q-26 -69 -43 -135z" />
    <glyph glyph-name="m" unicode="m" horiz-adv-x="688" 
d="M356 -50q-11 -1 -20 -1q-39 0 -62 20q-15 14 -23 36t-9 37.5t-1 40.5v18q-25 -17 -53 -49q-7 -8 -11.5 -12t-11.5 -9t-13.5 -4.5t-13.5 5.5q-11 8 -11 23t5 30q3 14 5 22q-14 -13 -51 -56q-45 -52 -66 -70.5t-38 -15.5q-13 3 -19 15q-15 34 70 170q4 6 11.5 7.5t14 -2.5
t8.5 -11.5t-2 -13.5q-44 -70 -62 -115q17 16 55 60q55 65 74 74q16 8 28 -2q20 -15 11 -58q26 28 55 48q20 13 35 5q8 -5 12 -14.5t4.5 -18t0.5 -26.5q0 -68 20 -86q17 -14 53 -10q70 8 148.5 36.5t126 54t55.5 36.5q5 6 12.5 7t14 -4t7 -12.5t-3.5 -13.5
q-23 -29 -137 -78.5t-218 -62.5z" />
    <glyph glyph-name="n" unicode="n" horiz-adv-x="541" 
d="M72 11q-31 -33 -43 -43.5t-22 -10.5q-7 0 -13 4t-9 12q-8 25 13.5 88.5t50.5 85.5q6 5 13.5 4t12 -7t3.5 -13.5t-7 -12.5q-14 -11 -27.5 -42.5t-20.5 -62.5q6 7 21 23q51 55 79.5 78t50.5 17q30 -8 23 -52q-4 -20 0 -26q9 -10 44 -12q48 -2 132.5 20t122 35.5t61.5 23.5
q7 3 14.5 0t10 -10t-0.5 -14.5t-10 -10.5q-26 -10 -66.5 -25t-127 -36.5t-137.5 -19.5q-53 3 -71 26q-15 18 -9 55q1 7 1 10q-18 -6 -89 -84z" />
    <glyph glyph-name="n" unicode="&#xf1;" horiz-adv-x="541" 
d="M72 11q-31 -33 -43 -43.5t-22 -10.5q-7 0 -13 4t-9 12q-8 25 13.5 88.5t50.5 85.5q6 5 13.5 4t12 -7t3.5 -13.5t-7 -12.5q-14 -11 -27.5 -42.5t-20.5 -62.5q6 7 21 23q51 55 79.5 78t50.5 17q30 -8 23 -52q-4 -20 0 -26q9 -10 44 -12q48 -2 132.5 20t122 35.5t61.5 23.5
q7 3 14.5 0t10 -10t-0.5 -14.5t-10 -10.5q-26 -10 -66.5 -25t-127 -36.5t-137.5 -19.5q-53 3 -71 26q-15 18 -9 55q1 7 1 10q-18 -6 -89 -84z" />
    <glyph glyph-name="o" unicode="o" horiz-adv-x="486" 
d="M505 85q-27 -11 -63 -24.5t-115 -36.5t-122 -23h-1q-58 0 -103 38q-32 -38 -67 -38q-29 0 -44 15t-15 52v4q0 17 11 36.5t25 30.5q18 15 35 12q8 -2 12.5 -8t2.5 -14q-1 -7 -7.5 -11.5t-13.5 -3.5q-4 -1 -10.5 -8t-12 -17t-5.5 -17v-4q0 -22 4 -26t18 -4q17 0 37 23
q2 2 4 5q-3 5 -5 9q-12 23 -2 38q9 13 28 11q5 0 9 -2t7 -4t6 -5t4.5 -7t2 -8t0.5 -9q0 -9 -4 -19q36 -32 83 -32h1q39 0 116 22.5t111.5 36t58.5 23.5q7 3 14.5 0t10 -10t0 -14.5t-10.5 -10.5z" />
    <glyph glyph-name="o" unicode="&#xf8;" horiz-adv-x="486" 
d="M505 85q-27 -11 -63 -24.5t-115 -36.5t-122 -23h-1q-58 0 -103 38q-32 -38 -67 -38q-29 0 -44 15t-15 52v4q0 17 11 36.5t25 30.5q18 15 35 12q8 -2 12.5 -8t2.5 -14q-1 -7 -7.5 -11.5t-13.5 -3.5q-4 -1 -10.5 -8t-12 -17t-5.5 -17v-4q0 -22 4 -26t18 -4q17 0 37 23
q2 2 4 5q-3 5 -5 9q-12 23 -2 38q9 13 28 11q5 0 9 -2t7 -4t6 -5t4.5 -7t2 -8t0.5 -9q0 -9 -4 -19q36 -32 83 -32h1q39 0 116 22.5t111.5 36t58.5 23.5q7 3 14.5 0t10 -10t0 -14.5t-10.5 -10.5z" />
    <glyph glyph-name="o" unicode="&#xf6;" horiz-adv-x="486" 
d="M505 85q-27 -11 -63 -24.5t-115 -36.5t-122 -23h-1q-58 0 -103 38q-32 -38 -67 -38q-29 0 -44 15t-15 52v4q0 17 11 36.5t25 30.5q18 15 35 12q8 -2 12.5 -8t2.5 -14q-1 -7 -7.5 -11.5t-13.5 -3.5q-4 -1 -10.5 -8t-12 -17t-5.5 -17v-4q0 -22 4 -26t18 -4q17 0 37 23
q2 2 4 5q-3 5 -5 9q-12 23 -2 38q9 13 28 11q5 0 9 -2t7 -4t6 -5t4.5 -7t2 -8t0.5 -9q0 -9 -4 -19q36 -32 83 -32h1q39 0 116 22.5t111.5 36t58.5 23.5q7 3 14.5 0t10 -10t0 -14.5t-10.5 -10.5z" />
    <glyph glyph-name="o" unicode="&#xf5;" horiz-adv-x="486" 
d="M505 85q-27 -11 -63 -24.5t-115 -36.5t-122 -23h-1q-58 0 -103 38q-32 -38 -67 -38q-29 0 -44 15t-15 52v4q0 17 11 36.5t25 30.5q18 15 35 12q8 -2 12.5 -8t2.5 -14q-1 -7 -7.5 -11.5t-13.5 -3.5q-4 -1 -10.5 -8t-12 -17t-5.5 -17v-4q0 -22 4 -26t18 -4q17 0 37 23
q2 2 4 5q-3 5 -5 9q-12 23 -2 38q9 13 28 11q5 0 9 -2t7 -4t6 -5t4.5 -7t2 -8t0.5 -9q0 -9 -4 -19q36 -32 83 -32h1q39 0 116 22.5t111.5 36t58.5 23.5q7 3 14.5 0t10 -10t0 -14.5t-10.5 -10.5z" />
    <glyph glyph-name="o" unicode="&#xf4;" horiz-adv-x="486" 
d="M505 85q-27 -11 -63 -24.5t-115 -36.5t-122 -23h-1q-58 0 -103 38q-32 -38 -67 -38q-29 0 -44 15t-15 52v4q0 17 11 36.5t25 30.5q18 15 35 12q8 -2 12.5 -8t2.5 -14q-1 -7 -7.5 -11.5t-13.5 -3.5q-4 -1 -10.5 -8t-12 -17t-5.5 -17v-4q0 -22 4 -26t18 -4q17 0 37 23
q2 2 4 5q-3 5 -5 9q-12 23 -2 38q9 13 28 11q5 0 9 -2t7 -4t6 -5t4.5 -7t2 -8t0.5 -9q0 -9 -4 -19q36 -32 83 -32h1q39 0 116 22.5t111.5 36t58.5 23.5q7 3 14.5 0t10 -10t0 -14.5t-10.5 -10.5z" />
    <glyph glyph-name="o" unicode="&#xf3;" horiz-adv-x="486" 
d="M505 85q-27 -11 -63 -24.5t-115 -36.5t-122 -23h-1q-58 0 -103 38q-32 -38 -67 -38q-29 0 -44 15t-15 52v4q0 17 11 36.5t25 30.5q18 15 35 12q8 -2 12.5 -8t2.5 -14q-1 -7 -7.5 -11.5t-13.5 -3.5q-4 -1 -10.5 -8t-12 -17t-5.5 -17v-4q0 -22 4 -26t18 -4q17 0 37 23
q2 2 4 5q-3 5 -5 9q-12 23 -2 38q9 13 28 11q5 0 9 -2t7 -4t6 -5t4.5 -7t2 -8t0.5 -9q0 -9 -4 -19q36 -32 83 -32h1q39 0 116 22.5t111.5 36t58.5 23.5q7 3 14.5 0t10 -10t0 -14.5t-10.5 -10.5z" />
    <glyph glyph-name="o" unicode="&#xf2;" horiz-adv-x="486" 
d="M505 85q-27 -11 -63 -24.5t-115 -36.5t-122 -23h-1q-58 0 -103 38q-32 -38 -67 -38q-29 0 -44 15t-15 52v4q0 17 11 36.5t25 30.5q18 15 35 12q8 -2 12.5 -8t2.5 -14q-1 -7 -7.5 -11.5t-13.5 -3.5q-4 -1 -10.5 -8t-12 -17t-5.5 -17v-4q0 -22 4 -26t18 -4q17 0 37 23
q2 2 4 5q-3 5 -5 9q-12 23 -2 38q9 13 28 11q5 0 9 -2t7 -4t6 -5t4.5 -7t2 -8t0.5 -9q0 -9 -4 -19q36 -32 83 -32h1q39 0 116 22.5t111.5 36t58.5 23.5q7 3 14.5 0t10 -10t0 -14.5t-10.5 -10.5z" />
    <glyph glyph-name="p" unicode="p" horiz-adv-x="779" 
d="M-134 -357q-6 -2 -11 -2q-9 0 -17 5q-38 24 19 133q32 61 84 132q3 11 13 45q19 68 28.5 100t19 56t16.5 30t17 6q7 0 12.5 -5.5t5.5 -12.5q0 -12 -10 -17q-11 -15 -42 -125q15 18 30 34q127 139 188 113q23 -10 27 -29q2 -15 -8 -33t-21 -29.5t-34 -32.5l-23 -23
q48 6 192 49q105 28 189 47t129 26.5t78 10t42 2t13 -2.5q7 -2 11 -8.5t2 -14t-9 -11t-14 -1.5q-4 0 -11 0.5t-39 -2.5t-75 -10.5t-124.5 -26t-181.5 -45.5q-102 -30 -155.5 -41.5t-68.5 -9t-22 13.5q-9 15 1.5 30t40.5 44q52 49 51 61l-4 2q-13 5 -43.5 -12t-74.5 -62
q-56 -56 -112 -132q-24 -82 -40 -130t-34 -82t-35 -40zM-142 -318q17 19 45 102q-43 -74 -45 -102z" />
    <glyph glyph-name="q" unicode="q" horiz-adv-x="657" 
d="M140 -412q-13 -8 -27 -8q-20 0 -39 16q-21 18 -18.5 62.5t28.5 126.5q-28 37 -43 58.5t-23.5 38t-8 24.5t7.5 15l4 3l4 1q60 16 119 32q0 2 1 5t2 5.5t2 4.5q26 69 34 95q-121 -75 -160 -61q-19 8 -29 23.5t-6 34.5q5 30 42.5 53t99.5 23q7 0 12.5 -5.5t5.5 -13t-5.5 -13
t-12.5 -5.5q-48 0 -75.5 -15t-30.5 -31q-2 -11 12 -16q26 -9 159 77q14 9 26 0q6 -5 8 -11t-2.5 -24t-12.5 -41.5t-26 -72.5q344 96 474 151q7 3 14.5 0t10.5 -10t0 -14t-10 -10q-140 -59 -505 -160q-29 -78 -47 -134q5 -6 6 -7q51 -67 54 -78q4 -19 -8 -60.5t-37 -58.5z
M149 -301q-3 5 -37 50q-32 -111 -16 -124q15 -11 23 -6q14 8 23 37.5t7 42.5zM128 -86q-36 -10 -76 -20q11 -20 46 -66q12 37 30 86z" />
    <glyph glyph-name="r" unicode="r" horiz-adv-x="529" 
d="M2 -45q-6 -17 -9.5 -25t-10 -15t-13.5 -7h-6q-18 5 -14 34q0 5 4 25t13 55.5t20 67t26.5 54.5t31.5 23q7 0 12 -4.5t6 -10.5q14 12 29 17q27 7 51 -13q20 -15 25 -37.5t-6.5 -45.5t-35.5 -37.5t-49 -11.5q9 -7 25.5 -12.5t47.5 -8.5t73 3q35 5 71.5 14t65 19t56.5 21.5
t46.5 21t35.5 18.5t22.5 12.5t8.5 5.5q6 4 13.5 2.5t12 -7.5t3 -14t-8.5 -12q-6 -4 -17.5 -11t-45 -24t-68.5 -31t-87 -29t-103 -22q-55 -9 -94.5 -3.5t-62 17.5t-32.5 28q-5 10 -5 20q-14 -31 -31 -77zM119 127q-8 7 -14 7q-2 0 -4 -1q-24 -7 -57 -77q13 11 35 6
q13 -4 27 5t21 22q11 23 -8 38z" />
    <glyph glyph-name="s" unicode="s" horiz-adv-x="457" 
d="M36 -22q-49 -43 -69 -43q-7 0 -13 3q-18 11 -9 42q7 25 75 44q-3 12 -22 24q-16 10 -21 25t2 30q9 21 35 30t62 -1q8 -2 11.5 -8.5t1 -14t-9 -11t-14.5 -1.5q-22 5 -35.5 1.5t-17.5 -11.5q-1 -3 6 -8q31 -20 38 -46q62 14 208 38q176 30 193 40q10 12 23 5q7 -4 9.5 -11
t-1.5 -14q-7 -14 -47 -24t-171 -32q-157 -26 -220 -41q-5 -8 -12 -15z" />
    <glyph glyph-name="s" unicode="&#xdf;" horiz-adv-x="457" 
d="M36 -22q-49 -43 -69 -43q-7 0 -13 3q-18 11 -9 42q7 25 75 44q-3 12 -22 24q-16 10 -21 25t2 30q9 21 35 30t62 -1q8 -2 11.5 -8.5t1 -14t-9 -11t-14.5 -1.5q-22 5 -35.5 1.5t-17.5 -11.5q-1 -3 6 -8q31 -20 38 -46q62 14 208 38q176 30 193 40q10 12 23 5q7 -4 9.5 -11
t-1.5 -14q-7 -14 -47 -24t-171 -32q-157 -26 -220 -41q-5 -8 -12 -15z" />
    <glyph glyph-name="t" unicode="t" horiz-adv-x="463" 
d="M549 503q3 -7 0 -14.5t-10 -10.5q-113 -49 -367 -56q-178 -293 -137 -376q10 -21 34 -28.5t64 -9.5q80 -3 286 92q35 16 44 20q7 3 14 -0.5t10 -10.5t0 -14t-11 -10t-41 -18q-206 -96 -296 -96h-8q-21 1 -34 3t-34 7t-36.5 17.5t-24.5 30.5q-10 20 -11 45.5t8 69.5
t41.5 114.5t87.5 162.5h-34q-137 0 -306 12t-238 19.5t-115 13.5q-7 1 -12 7t-4 13.5t7 12.5t14 4q42 -6 118 -14t262 -20.5t331 -9.5q60 98 143 217q4 6 12 7.5t14 -3t7.5 -12t-3.5 -13.5q-73 -105 -129 -195q228 8 329 52q7 3 14.5 0.5t10.5 -9.5z" />
    <glyph glyph-name="u" unicode="u" horiz-adv-x="728" 
d="M144 47q-53 -27 -80 -38.5t-44 -11.5q-6 0 -11 1q-32 11 -33 50q0 28 20 56.5t60 42.5q7 2 14 -1t9.5 -10.5t-1 -14.5t-10.5 -9q-18 -7 -31 -18t-18.5 -23t-5.5 -23q0 -12 7 -15q14 -1 107 47q61 32 91.5 44t48.5 7q16 -4 55 -31q28 -19 44 -29t44.5 -20t52.5 -9
q17 1 41 6t48 11.5t50.5 15t47 16t40.5 14.5t28 10.5t11 4.5q7 3 14 0t10 -10.5t0 -14.5t-10 -10q-22 -8 -57.5 -21.5t-108 -34.5t-112.5 -24q-30 -1 -63.5 10.5t-52 22.5t-48.5 31q-34 24 -44 27q-15 2 -113 -49z" />
    <glyph glyph-name="u" unicode="&#xfc;" horiz-adv-x="728" 
d="M144 47q-53 -27 -80 -38.5t-44 -11.5q-6 0 -11 1q-32 11 -33 50q0 28 20 56.5t60 42.5q7 2 14 -1t9.5 -10.5t-1 -14.5t-10.5 -9q-18 -7 -31 -18t-18.5 -23t-5.5 -23q0 -12 7 -15q14 -1 107 47q61 32 91.5 44t48.5 7q16 -4 55 -31q28 -19 44 -29t44.5 -20t52.5 -9
q17 1 41 6t48 11.5t50.5 15t47 16t40.5 14.5t28 10.5t11 4.5q7 3 14 0t10 -10.5t0 -14.5t-10 -10q-22 -8 -57.5 -21.5t-108 -34.5t-112.5 -24q-30 -1 -63.5 10.5t-52 22.5t-48.5 31q-34 24 -44 27q-15 2 -113 -49z" />
    <glyph glyph-name="u" unicode="&#xfb;" horiz-adv-x="728" 
d="M144 47q-53 -27 -80 -38.5t-44 -11.5q-6 0 -11 1q-32 11 -33 50q0 28 20 56.5t60 42.5q7 2 14 -1t9.5 -10.5t-1 -14.5t-10.5 -9q-18 -7 -31 -18t-18.5 -23t-5.5 -23q0 -12 7 -15q14 -1 107 47q61 32 91.5 44t48.5 7q16 -4 55 -31q28 -19 44 -29t44.5 -20t52.5 -9
q17 1 41 6t48 11.5t50.5 15t47 16t40.5 14.5t28 10.5t11 4.5q7 3 14 0t10 -10.5t0 -14.5t-10 -10q-22 -8 -57.5 -21.5t-108 -34.5t-112.5 -24q-30 -1 -63.5 10.5t-52 22.5t-48.5 31q-34 24 -44 27q-15 2 -113 -49z" />
    <glyph glyph-name="u" unicode="&#xfa;" horiz-adv-x="728" 
d="M144 47q-53 -27 -80 -38.5t-44 -11.5q-6 0 -11 1q-32 11 -33 50q0 28 20 56.5t60 42.5q7 2 14 -1t9.5 -10.5t-1 -14.5t-10.5 -9q-18 -7 -31 -18t-18.5 -23t-5.5 -23q0 -12 7 -15q14 -1 107 47q61 32 91.5 44t48.5 7q16 -4 55 -31q28 -19 44 -29t44.5 -20t52.5 -9
q17 1 41 6t48 11.5t50.5 15t47 16t40.5 14.5t28 10.5t11 4.5q7 3 14 0t10 -10.5t0 -14.5t-10 -10q-22 -8 -57.5 -21.5t-108 -34.5t-112.5 -24q-30 -1 -63.5 10.5t-52 22.5t-48.5 31q-34 24 -44 27q-15 2 -113 -49z" />
    <glyph glyph-name="u" unicode="&#xf9;" horiz-adv-x="728" 
d="M144 47q-53 -27 -80 -38.5t-44 -11.5q-6 0 -11 1q-32 11 -33 50q0 28 20 56.5t60 42.5q7 2 14 -1t9.5 -10.5t-1 -14.5t-10.5 -9q-18 -7 -31 -18t-18.5 -23t-5.5 -23q0 -12 7 -15q14 -1 107 47q61 32 91.5 44t48.5 7q16 -4 55 -31q28 -19 44 -29t44.5 -20t52.5 -9
q17 1 41 6t48 11.5t50.5 15t47 16t40.5 14.5t28 10.5t11 4.5q7 3 14 0t10 -10.5t0 -14.5t-10 -10q-22 -8 -57.5 -21.5t-108 -34.5t-112.5 -24q-30 -1 -63.5 10.5t-52 22.5t-48.5 31q-34 24 -44 27q-15 2 -113 -49z" />
    <glyph glyph-name="v" unicode="v" horiz-adv-x="683" 
d="M165 27q-60 -58 -89.5 -81t-48.5 -23q-2 0 -4 1q-31 3 -39.5 45t10.5 96.5t63 79.5q7 4 14 2t11 -8.5t2 -14t-9 -11.5q-31 -18 -46.5 -61t-8.5 -75q3 -16 7 -17q17 1 112 93q57 55 79.5 71.5t38.5 9.5q10 -4 26 -18q12 -12 21 -18.5t32.5 -14t55.5 -9.5q44 -3 122.5 10
t112 21.5t57.5 14.5q7 3 14 -1t9 -11q1 -6 0 -10.5t-4.5 -8t-8.5 -4.5q-26 -7 -62 -16t-115.5 -22t-126.5 -10q-38 2 -67 12t-40 18t-25 21q-9 8 -12 10q-15 -7 -81 -71z" />
    <glyph glyph-name="w" unicode="w" horiz-adv-x="894" 
d="M166 42q-66 -50 -100 -71.5t-54 -21.5q-12 0 -21 8q-22 21 -10 77q11 48 41 90.5t70 55.5q8 2 14.5 -1.5t9 -10.5t-1 -14t-10.5 -9q-28 -9 -50.5 -39.5t-32.5 -66.5q-11 -35 -6 -52q23 4 129 85q71 54 87 57q13 2 27 -8t23 -21.5t24 -34.5q17 -24 23 -30q10 5 48 35
q25 21 39.5 31.5t29.5 19t26 9.5q25 2 83 -26q47 -23 66 -25q22 -3 113.5 17t180.5 43q7 2 13.5 -2t8.5 -11t-2 -14t-11 -9q-256 -68 -307 -61q-26 3 -78 29q-49 23 -63 22q-14 -2 -76 -51q-36 -29 -51.5 -38.5t-27.5 -6.5q-10 2 -19 12t-26 35q-29 43 -39 48
q-11 -5 -70 -50z" />
    <glyph glyph-name="x" unicode="x" horiz-adv-x="572" 
d="M581 121q7 0 12.5 -5.5t5.5 -12.5q0 -10 -8 -18q-29 -27 -216 -77.5t-247 -50.5q-3 0 -5 1q-46 3 -86 44q-55 -32 -118 -58q-4 -1 -7 -1q-13 0 -18 11q-3 7 0 14.5t10 10.5q56 22 110 53l-1 1.5l-1 1.5q-35 62 -6 117q4 7 11 9.5t14 -1.5t9.5 -11t-1.5 -14q-19 -38 5 -81
q1 -1 1.5 -2l0.5 -1q83 51 83 81q0 7 5.5 12.5t13 5.5t13 -5.5t5.5 -12.5q0 -49 -96 -111q27 -25 56 -26q42 -3 226 45.5t212 70.5q5 10 17 10z" />
    <glyph glyph-name="y" unicode="y" horiz-adv-x="821" 
d="M133 -333q-34 -29 -67 -29q-22 0 -43 14q-25 17 -22 44q8 61 217 169q36 82 56 161.5t12 101.5q-30 -7 -100 -62q-33 -26 -52 -39.5t-48.5 -25t-54.5 -7.5q-50 8 -56 44q-5 30 23 63t70 55q7 4 14.5 1.5t11 -9t1 -14t-8.5 -11.5q-33 -17 -55 -41t-20 -38q2 -10 26 -13
q17 -3 41 7.5t40 22t45 34.5q27 21 41.5 31.5t37.5 23t42 15.5q24 4 35 -20q6 -14 5.5 -40.5t-7.5 -61t-19.5 -73.5t-28.5 -79q225 110 553 229q8 3 15 -0.5t9.5 -10.5t-1 -14t-10.5 -10q-345 -125 -589 -248q-57 -122 -113 -170zM120 -295q35 36 71 104q-148 -80 -153 -117
q0 -5 6 -9q32 -22 76 22z" />
    <glyph glyph-name="y" unicode="&#xff;" horiz-adv-x="821" 
d="M133 -333q-34 -29 -67 -29q-22 0 -43 14q-25 17 -22 44q8 61 217 169q36 82 56 161.5t12 101.5q-30 -7 -100 -62q-33 -26 -52 -39.5t-48.5 -25t-54.5 -7.5q-50 8 -56 44q-5 30 23 63t70 55q7 4 14.5 1.5t11 -9t1 -14t-8.5 -11.5q-33 -17 -55 -41t-20 -38q2 -10 26 -13
q17 -3 41 7.5t40 22t45 34.5q27 21 41.5 31.5t37.5 23t42 15.5q24 4 35 -20q6 -14 5.5 -40.5t-7.5 -61t-19.5 -73.5t-28.5 -79q225 110 553 229q8 3 15 -0.5t9.5 -10.5t-1 -14t-10.5 -10q-345 -125 -589 -248q-57 -122 -113 -170zM120 -295q35 36 71 104q-148 -80 -153 -117
q0 -5 6 -9q32 -22 76 22z" />
    <glyph glyph-name="y" unicode="&#xfd;" horiz-adv-x="821" 
d="M133 -333q-34 -29 -67 -29q-22 0 -43 14q-25 17 -22 44q8 61 217 169q36 82 56 161.5t12 101.5q-30 -7 -100 -62q-33 -26 -52 -39.5t-48.5 -25t-54.5 -7.5q-50 8 -56 44q-5 30 23 63t70 55q7 4 14.5 1.5t11 -9t1 -14t-8.5 -11.5q-33 -17 -55 -41t-20 -38q2 -10 26 -13
q17 -3 41 7.5t40 22t45 34.5q27 21 41.5 31.5t37.5 23t42 15.5q24 4 35 -20q6 -14 5.5 -40.5t-7.5 -61t-19.5 -73.5t-28.5 -79q225 110 553 229q8 3 15 -0.5t9.5 -10.5t-1 -14t-10.5 -10q-345 -125 -589 -248q-57 -122 -113 -170zM120 -295q35 36 71 104q-148 -80 -153 -117
q0 -5 6 -9q32 -22 76 22z" />
    <glyph glyph-name="z" unicode="z" horiz-adv-x="597" 
d="M-54 -332h-5q-10 0 -17.5 11t-28.5 51l-2 4q-14 29 0 61q18 40 86 85q27 49 66 93q28 29 41 48q-17 -6 -60 -24q-21 -10 -33 -14.5t-25.5 -9.5t-21.5 -6.5t-15.5 -0.5t-12.5 4q-11 8 -10 20q0 15 22 32t89 56q87 51 105 68q-10 4 -35 1t-46 -12q-29 -14 -27 -30
q1 -7 -3.5 -13.5t-12 -7.5t-13.5 3.5t-7 12.5q-7 45 51 70q15 6 33.5 10t37 4.5t35 -4t25.5 -15.5q7 -9 5 -20q-3 -17 -30 -37t-99 -62q-15 -9 -24 -14q28 12 42 17.5t31 10t26 2.5t15 -11q10 -14 -2 -36.5t-53 -66.5q-13 -14 -24 -28q91 47 231 97q165 60 329 103
q7 2 13.5 -1.5t8.5 -11t-2 -14t-11 -8.5q-145 -39 -326.5 -103t-283.5 -127q-32 -63 -41 -147q-1 -10 -2 -15t-3 -11.5t-6 -9.5t-10 -4zM-67 -262q6 39 17 74q-17 -17 -23 -32q-7 -16 -1 -29l2 -4q4 -6 5 -9z" />
    <glyph glyph-name="nonbreakingspace" unicode="&#xa0;" horiz-adv-x="377" 
 />
  </font>
</defs>
</svg>
